<svg width="733" height="705" viewBox="0 0 733 705" fill="none" xmlns="http://www.w3.org/2000/svg">
<g filter="url(#filter0_f_2016_282)">
<rect x="54.8284" y="156.665" width="217.865" height="311.695" rx="41" transform="rotate(-11.6813 54.8284 156.665)" fill="#ED1C24"/>
</g>
<g filter="url(#filter1_f_2016_282)">
<rect x="219.087" y="267.03" width="217.865" height="311.695" rx="41" transform="rotate(1.80414 219.087 267.03)" fill="#ED1C24"/>
</g>
<g filter="url(#filter2_f_2016_282)">
<rect x="414.629" y="122.25" width="217.865" height="311.695" rx="41" transform="rotate(17.0207 414.629 122.25)" fill="#ED1C24"/>
</g>
<path d="M336.065 185.314C359.376 185.314 382.042 189.746 403.513 198.514L405.587 199.377C426.853 208.374 445.929 221.223 462.288 237.582C478.135 253.429 490.688 271.826 499.637 292.295L500.492 294.282C509.805 316.366 514.555 339.742 514.555 363.804C514.555 387.116 510.122 409.782 501.354 431.253L500.492 433.327C491.495 454.593 478.646 473.668 462.288 490.027C446.44 505.874 428.043 518.428 407.575 527.377L405.587 528.231C383.504 537.571 360.128 542.295 336.065 542.295C312.002 542.295 288.626 537.571 266.542 528.231C245.277 519.234 226.201 506.385 209.842 490.027C193.995 474.18 181.442 455.782 172.493 435.314L171.637 433.327C162.297 411.243 157.575 387.868 157.575 363.804C157.575 339.741 162.297 316.365 171.637 294.282C180.634 273.016 193.484 253.94 209.842 237.582C226.201 221.223 245.276 208.374 266.542 199.377L266.542 199.376C288.626 190.062 312.002 185.314 336.065 185.314ZM336.065 221.011C257.314 221.011 193.272 285.053 193.272 363.804C193.272 442.556 257.34 506.596 336.065 506.596C414.816 506.596 478.857 442.555 478.857 363.804C478.857 285.053 414.816 221.011 336.065 221.011Z" stroke="white" stroke-opacity="0.5"/>
<mask id="path-5-inside-1_2016_282" fill="white">
<path d="M420.097 165.076C445.814 175.95 468.859 191.481 488.623 211.246C508.388 231.01 523.919 254.055 534.793 279.772C542.969 299.113 548.207 319.275 550.483 339.965C550.827 343.061 553.446 345.442 556.568 345.442H581.201C584.799 345.442 587.657 342.346 587.286 338.748C584.799 313.533 578.555 288.98 568.607 265.485C555.88 235.402 537.704 208.415 514.579 185.29C491.454 162.166 464.467 143.989 434.384 131.262C410.889 121.314 386.336 115.07 361.121 112.583C357.549 112.239 354.427 115.07 354.427 118.668V143.301C354.427 146.423 356.782 149.042 359.878 149.386C380.568 151.662 400.729 156.9 420.07 165.076"/>
</mask>
<path d="M534.793 279.772L535.714 279.383L535.714 279.383L534.793 279.772ZM550.483 339.965L549.489 340.074L549.489 340.075L550.483 339.965ZM587.286 338.748L586.291 338.846L586.292 338.85L587.286 338.748ZM568.607 265.485L567.686 265.875L567.686 265.875L568.607 265.485ZM434.384 131.262L433.994 132.183L433.994 132.183L434.384 131.262ZM361.121 112.583L361.219 111.588L361.217 111.587L361.121 112.583ZM359.878 149.386L359.767 150.38L359.768 150.38L359.878 149.386ZM420.097 165.076L419.707 165.997C445.306 176.821 468.243 192.279 487.916 211.953L488.623 211.246L489.331 210.539C469.475 190.683 446.322 175.08 420.486 164.155L420.097 165.076ZM488.623 211.246L487.916 211.953C507.59 231.626 523.048 254.563 533.872 280.162L534.793 279.772L535.714 279.383C524.79 253.547 509.186 230.394 489.331 210.539L488.623 211.246ZM534.793 279.772L533.872 280.162C542.01 299.414 547.224 319.48 549.489 340.074L550.483 339.965L551.477 339.856C549.191 319.069 543.928 298.813 535.714 279.383L534.793 279.772ZM550.483 339.965L549.489 340.075C549.888 343.67 552.929 346.442 556.568 346.442V345.442V344.442C553.963 344.442 551.765 342.451 551.477 339.855L550.483 339.965ZM556.568 345.442V346.442H581.201V345.442V344.442H556.568V345.442ZM581.201 345.442V346.442C585.38 346.442 588.713 342.846 588.281 338.646L587.286 338.748L586.292 338.85C586.6 341.847 584.219 344.442 581.201 344.442V345.442ZM587.286 338.748L588.281 338.65C585.784 313.335 579.515 288.683 569.528 265.095L568.607 265.485L567.686 265.875C577.595 289.277 583.814 313.732 586.291 338.846L587.286 338.748ZM568.607 265.485L569.528 265.095C556.751 234.894 538.502 207.799 515.286 184.583L514.579 185.29L513.872 185.997C536.905 209.031 555.01 235.91 567.686 265.875L568.607 265.485ZM514.579 185.29L515.286 184.583C492.071 161.367 464.975 143.118 434.774 130.341L434.384 131.262L433.994 132.183C463.959 144.86 490.838 162.964 513.872 185.997L514.579 185.29ZM434.384 131.262L434.774 130.342C411.186 120.354 386.535 114.085 361.219 111.588L361.121 112.583L361.023 113.578C386.137 116.055 410.592 122.274 433.994 132.183L434.384 131.262ZM361.121 112.583L361.217 111.587C357.058 111.187 353.427 114.48 353.427 118.668H354.427H355.427C355.427 115.66 358.041 113.291 361.025 113.578L361.121 112.583ZM354.427 118.668H353.427V143.301H354.427H355.427V118.668H354.427ZM354.427 143.301H353.427C353.427 146.934 356.167 149.98 359.767 150.38L359.878 149.386L359.988 148.392C357.397 148.105 355.427 145.912 355.427 143.301H354.427ZM359.878 149.386L359.768 150.38C380.362 152.645 400.429 157.859 419.681 165.997L420.07 165.076L420.46 164.155C401.029 155.942 380.774 150.678 359.987 148.392L359.878 149.386Z" fill="white" fill-opacity="0.5" mask="url(#path-5-inside-1_2016_282)"/>
<path d="M556.568 382.64H581.201C584.503 382.64 587.103 385.507 586.789 388.784C584.306 413.922 578.075 438.426 568.146 461.901C555.445 491.925 537.304 518.858 514.225 541.937C491.146 565.016 464.213 583.157 434.189 595.858C410.74 605.787 386.236 612.019 361.072 614.501H361.07C357.772 614.84 354.927 612.221 354.927 608.913V584.28C354.927 581.417 357.113 579.008 359.959 578.692L359.958 578.691C380.697 576.411 400.906 571.16 420.292 562.966C446.068 552.066 469.167 536.499 488.977 516.689C508.787 496.88 524.354 473.781 535.253 448.004C543.448 428.618 548.699 408.409 550.98 387.671C551.296 384.801 553.703 382.64 556.568 382.64Z" stroke="white" stroke-opacity="0.5"/>
<mask id="path-8-inside-2_2016_282" fill="white">
<path d="M252.06 562.505C226.342 551.631 203.297 536.1 183.533 516.336C163.769 496.571 148.238 473.526 137.363 447.809C129.188 428.468 123.949 408.307 121.674 387.616C121.33 384.521 118.71 382.14 115.588 382.14H90.9557C87.3573 382.14 84.4998 385.235 84.8703 388.833C87.3573 414.048 93.6015 438.601 103.55 462.096C116.276 492.179 134.453 519.167 157.578 542.291C180.702 565.416 207.689 583.593 237.772 596.319C261.294 606.267 285.847 612.511 311.035 614.999C314.607 615.342 317.729 612.511 317.729 608.913V584.281C317.729 581.158 315.374 578.539 312.279 578.195C291.589 575.92 271.427 570.681 252.086 562.505"/>
</mask>
<path d="M137.363 447.809L136.442 448.198L136.442 448.198L137.363 447.809ZM121.674 387.616L122.668 387.507L122.668 387.506L121.674 387.616ZM84.8703 388.833L85.8654 388.735L85.865 388.731L84.8703 388.833ZM103.55 462.096L104.471 461.707L104.471 461.706L103.55 462.096ZM237.772 596.319L237.383 597.24L237.383 597.24L237.772 596.319ZM311.035 614.999L310.937 615.994L310.939 615.994L311.035 614.999ZM312.279 578.195L312.389 577.201L312.388 577.201L312.279 578.195ZM252.06 562.505L252.449 561.584C226.851 550.76 203.914 535.302 184.24 515.629L183.533 516.336L182.826 517.043C202.681 536.898 225.834 552.502 251.67 563.426L252.06 562.505ZM183.533 516.336L184.24 515.629C164.567 495.955 149.109 473.018 138.284 447.419L137.363 447.809L136.442 448.198C147.367 474.035 162.971 497.188 182.826 517.043L183.533 516.336ZM137.363 447.809L138.285 447.42C130.147 428.168 124.932 408.101 122.668 387.507L121.674 387.616L120.68 387.726C122.966 408.513 128.229 428.768 136.442 448.198L137.363 447.809ZM121.674 387.616L122.668 387.506C122.268 383.911 119.227 381.14 115.588 381.14V382.14V383.14C118.193 383.14 120.391 385.13 120.68 387.727L121.674 387.616ZM115.588 382.14V381.14H90.9557V382.14V383.14H115.588V382.14ZM90.9557 382.14V381.14C86.7768 381.14 83.4432 384.736 83.8755 388.936L84.8703 388.833L85.865 388.731C85.5565 385.734 87.9379 383.14 90.9557 383.14V382.14ZM84.8703 388.833L83.8751 388.932C86.3721 414.247 92.6413 438.898 102.629 462.486L103.55 462.096L104.471 461.706C94.5617 438.304 88.3426 413.849 85.8654 388.735L84.8703 388.833ZM103.55 462.096L102.629 462.486C115.405 492.688 133.655 519.783 156.87 542.998L157.578 542.291L158.285 541.584C135.251 518.551 117.147 491.671 104.471 461.707L103.55 462.096ZM157.578 542.291L156.87 542.998C180.086 566.214 207.181 584.463 237.383 597.24L237.772 596.319L238.162 595.398C208.198 582.722 181.318 564.618 158.285 541.584L157.578 542.291ZM237.772 596.319L237.383 597.24C260.997 607.227 285.648 613.497 310.937 615.994L311.035 614.999L311.134 614.003C286.046 611.526 261.591 605.307 238.162 595.398L237.772 596.319ZM311.035 614.999L310.939 615.994C315.099 616.394 318.729 613.102 318.729 608.913H317.729H316.729C316.729 611.921 314.116 614.291 311.131 614.003L311.035 614.999ZM317.729 608.913H318.729V584.281H317.729H316.729V608.913H317.729ZM317.729 584.281H318.729C318.729 580.647 315.99 577.601 312.389 577.201L312.279 578.195L312.168 579.189C314.759 579.477 316.729 581.67 316.729 584.281H317.729ZM312.279 578.195L312.388 577.201C291.794 574.936 271.727 569.722 252.476 561.584L252.086 562.505L251.697 563.426C271.127 571.64 291.383 576.903 312.17 579.189L312.279 578.195Z" fill="white" fill-opacity="0.5" mask="url(#path-8-inside-2_2016_282)"/>
<mask id="path-10-inside-3_2016_282" fill="white">
<path d="M137.363 279.773C148.238 254.082 163.769 231.01 183.533 211.246C203.297 191.482 226.342 175.951 252.06 165.076C271.401 156.901 291.562 151.662 312.252 149.386C315.348 149.043 317.729 146.423 317.729 143.301V118.695C317.729 115.097 314.634 112.239 311.035 112.61C285.82 115.097 261.267 121.341 237.746 131.289C207.663 144.015 180.675 162.192 157.551 185.317C134.426 208.441 116.25 235.429 103.523 265.512C93.6014 288.98 87.3572 313.533 84.8701 338.748C84.5262 342.32 87.3572 345.442 90.9555 345.442H115.588C118.71 345.442 121.33 343.087 121.674 339.992C123.949 319.301 129.188 299.14 137.363 279.799"/>
</mask>
<path d="M252.06 165.076L251.67 164.155L251.67 164.155L252.06 165.076ZM312.252 149.386L312.362 150.38L312.363 150.38L312.252 149.386ZM311.035 112.61L311.133 113.605L311.138 113.604L311.035 112.61ZM237.746 131.289L237.356 130.368L237.356 130.368L237.746 131.289ZM103.523 265.512L102.602 265.122L102.602 265.122L103.523 265.512ZM84.8701 338.748L83.875 338.65L83.8747 338.652L84.8701 338.748ZM121.674 339.992L122.667 340.102L122.668 340.101L121.674 339.992ZM137.363 279.773L138.284 280.163C149.108 254.59 164.567 231.626 184.24 211.953L183.533 211.246L182.826 210.539C162.97 230.394 147.367 253.574 136.442 279.383L137.363 279.773ZM183.533 211.246L184.24 211.953C203.913 192.28 226.851 176.821 252.449 165.997L252.06 165.076L251.67 164.155C225.834 175.08 202.681 190.684 182.826 210.539L183.533 211.246ZM252.06 165.076L252.449 165.997C271.701 157.859 291.768 152.645 312.362 150.38L312.252 149.386L312.143 148.392C291.356 150.678 271.101 155.942 251.67 164.155L252.06 165.076ZM312.252 149.386L312.363 150.38C315.957 149.981 318.729 146.94 318.729 143.301H317.729H316.729C316.729 145.906 314.739 148.104 312.142 148.393L312.252 149.386ZM317.729 143.301H318.729V118.695H317.729H316.729V143.301H317.729ZM317.729 118.695H318.729C318.729 114.516 315.133 111.182 310.933 111.615L311.035 112.61L311.138 113.604C314.134 113.296 316.729 115.677 316.729 118.695H317.729ZM311.035 112.61L310.937 111.614C285.622 114.111 260.97 120.381 237.356 130.368L237.746 131.289L238.135 132.21C261.564 122.301 286.019 116.082 311.133 113.605L311.035 112.61ZM237.746 131.289L237.356 130.368C207.155 143.145 180.059 161.394 156.844 184.61L157.551 185.317L158.258 186.024C181.291 162.99 208.171 144.886 238.135 132.21L237.746 131.289ZM157.551 185.317L156.844 184.61C133.628 207.825 115.379 234.92 102.602 265.122L103.523 265.512L104.444 265.901C117.12 235.937 135.225 209.057 158.258 186.024L157.551 185.317ZM103.523 265.512L102.602 265.122C92.6411 288.683 86.372 313.335 83.875 338.65L84.8701 338.748L85.8653 338.846C88.3425 313.732 94.5616 289.277 104.444 265.901L103.523 265.512ZM84.8701 338.748L83.8747 338.652C83.4742 342.812 86.7671 346.442 90.9555 346.442V345.442V344.442C87.9473 344.442 85.5781 341.828 85.8655 338.844L84.8701 338.748ZM90.9555 345.442V346.442H115.588V345.442V344.442H90.9555V345.442ZM115.588 345.442V346.442C119.221 346.442 122.267 343.703 122.667 340.102L121.674 339.992L120.68 339.881C120.392 342.472 118.199 344.442 115.588 344.442V345.442ZM121.674 339.992L122.668 340.101C124.932 319.507 130.147 299.44 138.284 280.189L137.363 279.799L136.442 279.41C128.229 298.84 122.966 319.096 120.68 339.882L121.674 339.992Z" fill="white" fill-opacity="0.5" mask="url(#path-10-inside-3_2016_282)"/>
<path d="M354.953 267.416C354.953 263.865 358.213 261.243 361.645 261.901L361.977 261.975C399.158 271.428 428.467 300.737 437.921 337.918C438.821 341.468 436.144 344.942 432.479 344.942H406.946C404.639 344.942 402.561 343.528 401.728 341.388L401.651 341.178L401.319 340.239C394.223 320.588 378.498 305.065 358.717 298.244V298.243C356.46 297.467 354.953 295.33 354.953 292.948V267.416Z" stroke="white" stroke-opacity="0.5"/>
<path d="M239.678 382.666H265.21C267.592 382.666 269.728 384.173 270.505 386.43H270.506C277.327 406.211 292.85 421.936 312.501 429.032L313.439 429.364C315.696 430.141 317.203 432.277 317.203 434.659V460.191C317.203 463.858 313.755 466.533 310.179 465.633H310.178C273.314 456.253 244.148 427.327 234.461 390.56L234.236 389.689C233.337 386.139 236.012 382.666 239.678 382.666Z" stroke="white" stroke-opacity="0.5"/>
<path d="M406.92 382.666H432.453C436.005 382.666 438.626 385.902 437.968 389.355L437.894 389.69C428.514 426.581 399.588 455.722 362.821 465.408L361.951 465.634C358.401 466.533 354.927 463.857 354.927 460.191V434.659C354.927 432.277 356.434 430.141 358.691 429.364C378.786 422.435 394.696 406.525 401.625 386.43C402.402 384.173 404.539 382.666 406.92 382.666Z" stroke="white" stroke-opacity="0.5"/>
<path d="M310.206 261.948C313.756 261.049 317.229 263.724 317.229 267.39V292.922C317.229 295.304 315.722 297.441 313.465 298.217V298.218C293.37 305.147 277.461 321.057 270.532 341.152H270.531C269.754 343.408 267.618 344.915 265.236 344.915H239.704C236.037 344.915 233.362 341.468 234.262 337.892C243.716 300.711 273.025 271.402 310.206 261.948Z" stroke="white" stroke-opacity="0.5"/>
<defs>
<filter id="filter0_f_2016_282" x="-57.7278" y="-0.00164795" width="501.573" height="574.463" filterUnits="userSpaceOnUse" color-interpolation-filters="sRGB">
<feFlood flood-opacity="0" result="BackgroundImageFix"/>
<feBlend mode="normal" in="SourceGraphic" in2="BackgroundImageFix" result="shape"/>
<feGaussianBlur stdDeviation="60" result="effect1_foregroundBlur_2016_282"/>
</filter>
<filter id="filter1_f_2016_282" x="90.5439" y="148.3" width="465.03" height="555.86" filterUnits="userSpaceOnUse" color-interpolation-filters="sRGB">
<feFlood flood-opacity="0" result="BackgroundImageFix"/>
<feBlend mode="normal" in="SourceGraphic" in2="BackgroundImageFix" result="shape"/>
<feGaussianBlur stdDeviation="60" result="effect1_foregroundBlur_2016_282"/>
</filter>
<filter id="filter2_f_2016_282" x="213.585" y="12.4451" width="519.171" height="581.426" filterUnits="userSpaceOnUse" color-interpolation-filters="sRGB">
<feFlood flood-opacity="0" result="BackgroundImageFix"/>
<feBlend mode="normal" in="SourceGraphic" in2="BackgroundImageFix" result="shape"/>
<feGaussianBlur stdDeviation="60" result="effect1_foregroundBlur_2016_282"/>
</filter>
</defs>
</svg>
