 <svg  width="51" height="50" viewBox="0 0 51 50" fill="none" xmlns="http://www.w3.org/2000/svg">
                                    <g clip-path="url(#clip0_119_449)">
                                        <path
                                            d="M49.5944 19.4838C49.3015 18.9989 48.864 18.713 48.3296 18.6571C47.164 18.5347 46.5202 19.8357 46.1375 20.8247C45.8011 21.6897 45.5333 22.4518 45.2745 23.1889C44.4787 25.4549 43.8828 27.1493 42.1018 29.2665C41.9608 29.0335 41.7888 28.8358 41.5925 28.6859C40.9565 28.1998 39.9025 28.0747 38.8515 29.1811C37.7584 30.3309 36.4387 31.0947 35.0414 31.9033C33.5499 32.7666 32.0074 33.6592 30.6571 35.0832C28.9309 36.9018 27.9348 38.6274 27.5227 40.5131C27.3333 41.3748 27.3918 42.133 27.4485 42.8663C27.4789 43.2615 27.51 43.6669 27.5043 44.1009C26.7786 44.3129 26.2466 44.9821 26.2466 45.7741V47.8669C26.2466 48.8285 27.0302 49.6108 27.9935 49.6108H38.3188C39.2805 49.6108 40.0628 48.8284 40.0628 47.8669V45.7741C40.0628 45.0082 39.5658 44.3575 38.8779 44.1237C38.9217 43.2519 39.2255 42.2834 40.6467 41.068C41.1312 40.6529 41.608 40.2658 42.0692 39.8915C44.1338 38.2156 45.9167 36.7683 47.03 33.9803C48.1986 31.0528 51.1781 22.1056 49.5943 19.4838H49.5944ZM38.8892 47.8669C38.8892 48.1813 38.6334 48.4371 38.3189 48.4371H27.9936C27.6776 48.4371 27.4205 48.1813 27.4205 47.8669V45.7741C27.4205 45.4596 27.6776 45.2039 27.9936 45.2039H38.3189C38.6334 45.2039 38.8892 45.4596 38.8892 45.7741V47.8669ZM45.9401 33.5453C44.9401 36.0496 43.3468 37.3429 41.3296 38.9802C40.8624 39.3594 40.3794 39.7515 39.8835 40.1764C38.2023 41.6141 37.777 42.8767 37.7093 44.0301H28.6784C28.6802 43.5835 28.6495 43.1747 28.6188 42.776C28.5641 42.0684 28.5169 41.4574 28.6693 40.7643C29.0338 39.0964 29.936 37.5479 31.5086 35.8912C32.7423 34.5902 34.21 33.7407 35.6293 32.9192C37.0369 32.1046 38.4924 31.2622 39.7023 29.9897C39.9634 29.7147 40.4639 29.3004 40.8798 29.6185C41.3419 29.9716 41.6193 31.1272 40.9114 32.2938C40.1828 33.4997 38.1772 35.0032 36.5126 35.9584C36.2315 36.1196 36.1344 36.4783 36.2957 36.7594C36.4569 37.0405 36.8154 37.1378 37.0968 36.9763C38.7609 36.0215 41.0215 34.381 41.9154 32.9017C42.3898 32.1199 42.557 31.3072 42.5044 30.589C44.8147 28.0374 45.5085 26.0646 46.3819 23.5779C46.6376 22.8499 46.9021 22.0971 47.2318 21.2492C47.7835 19.8231 48.1638 19.8209 48.2068 19.8244C48.324 19.8367 48.4612 19.8779 48.5898 20.0907C49.6447 21.8371 47.6926 29.1547 45.9401 33.5452V33.5453ZM24.1087 44.1012C24.103 43.6672 24.1341 43.2618 24.1646 42.8665C24.2212 42.1332 24.2798 41.375 24.0905 40.5137C23.6783 38.6276 22.6823 36.902 20.9559 35.0835C19.6045 33.6597 18.063 32.7674 16.5721 31.9043C15.1748 31.0955 13.8553 30.3315 12.7618 29.1814C11.7105 28.0748 10.6565 28.2 10.0205 28.686C9.82423 28.836 9.65226 29.0336 9.51134 29.2666C7.73029 27.1495 7.13439 25.455 6.33859 23.1893C6.0798 22.4522 5.81203 21.6899 5.47589 20.8258C5.09288 19.8357 4.44777 18.5325 3.28419 18.6572C2.74913 18.7131 2.31163 18.999 2.01867 19.4839C0.434877 22.1056 3.41427 31.0529 4.58292 33.9805C5.6962 36.7685 7.47931 38.2158 9.54396 39.8917C10.0052 40.266 10.4819 40.6531 10.9668 41.0685C12.3875 42.2835 12.6913 43.252 12.7351 44.1238C12.0472 44.3576 11.5502 45.0083 11.5502 45.7742V47.867C11.5502 48.8286 12.3326 49.6109 13.2942 49.6109H23.6195C24.5812 49.6109 25.3635 48.8285 25.3635 47.867V45.7742C25.3635 44.9825 24.8326 44.3133 24.1085 44.1012H24.1087ZM11.7301 40.1768C11.2338 39.7516 10.7509 39.3595 10.2837 38.9804C8.26642 37.3429 6.67306 36.0496 5.67296 33.5454C3.92042 29.1548 1.96837 21.837 3.02335 20.0908C3.15177 19.878 3.28908 19.8368 3.40695 19.8245C3.44933 19.8184 3.8299 19.8237 4.38165 21.2502C4.71105 22.0973 4.9755 22.8503 5.23117 23.5783C6.10451 26.065 6.79835 28.0375 9.10851 30.589C9.05578 31.3071 9.22287 32.1197 9.69689 32.901C10.5915 34.3812 12.8522 36.0216 14.5162 36.9764C14.7974 37.1376 15.1561 37.0406 15.3173 36.7595C15.4786 36.4784 15.3816 36.1197 15.1004 35.9585C13.4359 35.0033 11.4302 33.4997 10.7009 32.293C9.99367 31.1273 10.2711 29.9717 10.7331 29.6186C11.1491 29.3008 11.6494 29.7146 11.911 29.99C13.121 31.2627 14.5764 32.1052 15.984 32.9201C17.4027 33.7414 18.8698 34.5907 20.1045 35.8916C21.6772 37.5481 22.5793 39.0965 22.9439 40.7651C23.096 41.4575 23.0487 42.0686 22.9942 42.7761C22.9634 43.1747 22.9327 43.5836 22.9345 44.0302H13.9036C13.836 42.8768 13.4108 41.6143 11.7299 40.1769L11.7301 40.1768ZM24.1899 47.8669C24.1899 48.1813 23.9341 48.4371 23.6196 48.4371H13.2943C12.9798 48.4371 12.724 48.1813 12.724 47.8669V45.7741C12.724 45.4596 12.9798 45.2039 13.2943 45.2039H23.6196C23.9341 45.2039 24.1899 45.4596 24.1899 45.7741V47.8669ZM39.4162 3.24313C39.2542 2.96237 39.3505 2.60349 39.6313 2.44157L43.0527 0.467841C43.3337 0.305731 43.6924 0.402216 43.8543 0.68288C44.0163 0.963642 43.92 1.32253 43.6393 1.48444L40.2178 3.45817C40.1254 3.51149 40.0245 3.53688 39.9251 3.53688C39.7222 3.53688 39.5248 3.43151 39.4162 3.24313ZM7.759 0.68288C7.92091 0.402216 8.2796 0.305731 8.56056 0.467841L11.982 2.44157C12.2628 2.60349 12.3591 2.96237 12.1971 3.24313C12.0885 3.43151 11.8911 3.53688 11.6882 3.53688C11.5887 3.53688 11.4879 3.51149 11.3955 3.45817L7.97404 1.48444C7.69327 1.32253 7.59699 0.963642 7.759 0.68288ZM41.4032 6.31657L45.2179 5.29509C45.531 5.2113 45.8527 5.39704 45.9365 5.71013C46.0203 6.02321 45.8346 6.34499 45.5215 6.42878L41.7068 7.45026C41.656 7.46393 41.6049 7.47038 41.5546 7.47038C41.2954 7.47038 41.0583 7.29743 40.9881 7.03522C40.9043 6.72214 41.0901 6.40036 41.4031 6.31657H41.4032ZM42.1087 10.5152H46.0589C46.383 10.5152 46.6458 10.7779 46.6458 11.1021C46.6458 11.4263 46.3831 11.689 46.0589 11.689H42.1087C41.7846 11.689 41.5218 11.4263 41.5218 11.1021C41.5218 10.7779 41.7845 10.5152 42.1087 10.5152ZM4.96759 11.1021C4.96759 10.778 5.23029 10.5152 5.55451 10.5152H9.5048C9.82892 10.5152 10.0917 10.7779 10.0917 11.1021C10.0917 11.4263 9.82902 11.689 9.5048 11.689H5.55451C5.23038 11.689 4.96759 11.4263 4.96759 11.1021ZM5.67697 5.71013C5.76076 5.39714 6.08292 5.2114 6.39562 5.29509L10.2103 6.31657C10.5234 6.40036 10.7091 6.72214 10.6253 7.03522C10.5551 7.29743 10.318 7.47038 10.0588 7.47038C10.0085 7.47038 9.95744 7.46393 9.90656 7.45026L6.09191 6.42878C5.77882 6.34499 5.59308 6.02321 5.67687 5.71013H5.67697ZM28.5534 30.9249C28.6137 31.15 28.8014 31.3179 29.0317 31.3532C29.0613 31.3578 29.0909 31.3599 29.1203 31.3599C29.3193 31.3599 29.5072 31.2587 29.6158 31.0873L31.8955 27.4909L35.666 29.4659C35.8723 29.5739 36.1234 29.5498 36.3051 29.4042C36.4869 29.2586 36.5654 29.0191 36.5052 28.794L34.111 19.8645C34.2084 19.8024 34.311 19.7442 34.4226 19.6924C35.8398 19.0331 36.6994 17.5436 36.5616 15.9848C36.5077 15.3904 36.6439 14.8823 36.9888 14.3876C37.8878 13.1079 37.8878 11.3883 36.9901 10.1104C36.644 9.61393 36.5078 9.10495 36.5617 8.50749C36.6995 6.95163 35.8399 5.46325 34.4224 4.80378C33.8843 4.55358 33.5012 4.17058 33.251 3.63229C32.5916 2.21491 31.1043 1.35583 29.5486 1.49304C28.9466 1.54509 28.4381 1.40847 27.9454 1.06276C26.6661 0.167255 24.9472 0.167255 23.6681 1.06276C23.6679 1.06276 23.6677 1.06306 23.6675 1.06315C23.1755 1.40847 22.6662 1.54577 22.0661 1.49313C20.5104 1.35602 19.0218 2.21511 18.3624 3.63249C18.1122 4.17058 17.7292 4.55368 17.1908 4.80388C15.7735 5.46325 14.914 6.95163 15.0517 8.50622C15.1037 9.10749 14.9671 9.61677 14.6214 10.1094C13.726 11.3887 13.726 13.1076 14.6218 14.3874C14.9671 14.8795 15.1038 15.3878 15.0518 15.9861C14.9141 17.5436 15.7737 19.0331 17.1911 19.6925C17.3019 19.744 17.4045 19.8026 17.5024 19.8655L15.1082 28.7939C15.048 29.019 15.1265 29.2585 15.3083 29.4041C15.4901 29.5496 15.741 29.5738 15.9474 29.4658L19.7177 27.4909L21.9945 31.0869C22.1031 31.2585 22.2912 31.3598 22.4902 31.3598C22.5195 31.3598 22.5491 31.3577 22.5787 31.3531C22.809 31.3181 22.9967 31.1501 23.057 30.9251L24.9163 23.9955C25.2086 24.0671 25.5074 24.1045 25.8068 24.1045C26.1059 24.1045 26.4047 24.067 26.6969 23.9955L28.5533 30.9248L28.5534 30.9249ZM31.9614 26.2005C31.6909 26.059 31.3571 26.1483 31.1936 26.406L29.3408 29.3288L27.788 23.5324C27.8409 23.499 27.8944 23.4667 27.946 23.4304C28.4386 23.0847 28.947 22.9483 29.5474 23.0032C31.0607 23.1365 32.509 22.3279 33.1946 20.9794L35.0248 27.805L31.9614 26.2005ZM22.2704 29.3285L20.4201 26.4063C20.2566 26.1482 19.9225 26.0586 19.6521 26.2005L16.5887 27.805L18.4191 20.9793C19.104 22.3276 20.5536 23.1365 22.0672 23.0031C22.6674 22.949 23.1751 23.0848 23.6674 23.4302C23.7191 23.4666 23.7726 23.499 23.8256 23.5323L22.2704 29.3285ZM24.3418 22.4697C23.7187 22.0324 23.054 21.8176 22.3196 21.8176C22.2025 21.8176 22.0834 21.8231 21.9626 21.834C20.8984 21.9298 19.8784 21.3396 19.4268 20.369C19.2239 19.9325 18.9515 19.5605 18.617 19.2511C18.5872 19.2165 18.5529 19.1855 18.5153 19.1583C18.2701 18.9491 17.9941 18.7715 17.686 18.6283C16.7153 18.1766 16.1266 17.1564 16.221 16.0885C16.2972 15.211 16.0884 14.4341 15.5828 13.7137C14.9693 12.8371 14.9693 11.6592 15.5824 10.7832C16.0882 10.0625 16.2971 9.28464 16.2209 8.40397C16.1265 7.33884 16.7152 6.3197 17.6857 5.86823C18.4744 5.50163 19.0602 4.91589 19.4266 4.12751C19.8781 3.1569 20.897 2.56765 21.9637 2.66247C22.8435 2.73815 23.6206 2.52985 24.3411 2.02429C25.2178 1.41071 26.3956 1.41071 27.2717 2.0239C27.9924 2.52975 28.7702 2.73815 29.6509 2.66237C30.7149 2.56735 31.7352 3.15671 32.1867 4.12731C32.5532 4.91589 33.139 5.50163 33.9274 5.86804C34.8981 6.3197 35.4869 7.33884 35.3926 8.403C35.3136 9.2779 35.5212 10.056 36.0284 10.7834C36.6439 11.6595 36.6439 12.8368 36.0272 13.7147C35.5281 14.4304 35.3146 15.23 35.3925 16.0895C35.4868 17.1564 34.8981 18.1766 33.9276 18.6282C33.6181 18.772 33.3411 18.9505 33.0954 19.1602C33.0596 19.1864 33.0268 19.216 32.9982 19.249C32.6622 19.5591 32.3892 19.9316 32.1868 20.3687C31.7352 21.3394 30.7165 21.9291 29.6519 21.834C28.7729 21.7551 27.9941 21.9626 27.2715 22.4698C26.3952 23.0853 25.218 23.0853 24.3417 22.4696L24.3418 22.4697ZM33.4886 12.2482C33.4886 8.01247 30.0425 4.56638 25.8068 4.56638C21.571 4.56638 18.125 8.01247 18.125 12.2482C18.125 16.484 21.571 19.93 25.8068 19.93C30.0425 19.93 33.4886 16.484 33.4886 12.2482ZM25.8068 18.7562C22.2183 18.7562 19.2987 15.8367 19.2987 12.2482C19.2987 8.65973 22.2183 5.74011 25.8068 5.74011C29.3952 5.74011 32.3149 8.65964 32.3149 12.2482C32.3149 15.8368 29.3953 18.7562 25.8068 18.7562ZM31.0598 10.6798C30.9874 10.4573 30.7896 10.299 30.5567 10.277L27.5447 9.99401L26.3455 7.21813C26.2527 7.00329 26.0409 6.86403 25.8068 6.86403C25.5726 6.86403 25.361 7.00329 25.268 7.21813L24.0688 9.99401L21.0569 10.277C20.8239 10.299 20.6262 10.4573 20.5538 10.6798C20.4815 10.9023 20.5482 11.1466 20.7237 11.3014L22.9935 13.3031L22.3329 16.2528C22.2818 16.4812 22.3713 16.7182 22.5606 16.8558C22.7499 16.9934 23.0029 17.0054 23.2044 16.8862L25.8067 15.3467L28.4089 16.8862C28.5013 16.941 28.6046 16.968 28.7076 16.968C28.8291 16.968 28.9502 16.9303 29.0527 16.8559C29.242 16.7183 29.3315 16.4813 29.2804 16.2529L28.6198 13.3032L30.8897 11.3015C31.0652 11.1467 31.1319 10.9024 31.0596 10.6799L31.0598 10.6798ZM27.5833 12.6524C27.4227 12.7939 27.352 13.0119 27.3987 13.2208L27.8386 15.1849L26.1055 14.1597C26.0134 14.1051 25.91 14.0779 25.8067 14.0779C25.7033 14.0779 25.6 14.1051 25.5078 14.1597L23.7747 15.1849L24.2146 13.2208C24.2613 13.0118 24.1906 12.794 24.03 12.6524L22.5176 11.3186L24.5245 11.13C24.7379 11.1099 24.9234 10.9752 25.0083 10.7785L25.8067 8.93054L26.605 10.7785C26.69 10.9752 26.8755 11.1099 27.0888 11.13L29.0957 11.3186L27.5833 12.6524Z"
                                            fill="url(#paint0_linear_119_449)"
                                        />
                                    </g>
                                    <defs>
                                        <linearGradient id="paint0_linear_119_449" x1="25.8065" y1="0.38916" x2="25.8065" y2="49.6109" gradientUnits="userSpaceOnUse">
                                            <stop stop-color="#FFD33D" />
                                            <stop offset="0.831731" stop-color="#FF0009" />
                                        </linearGradient>
                                        <clipPath id="clip0_119_449">
                                            <rect width="50" height="50" fill="white" transform="translate(0.806641)" />
                                        </clipPath>
                                    </defs>
                                </svg>