 <svg  class="mx-auto" width="50" height="50" viewBox="0 0 57 56" fill="none" xmlns="http://www.w3.org/2000/svg">
                                    <path
                                        d="M15.171 30.8945C15.1909 30.4754 15.5528 30.1513 15.9794 30.1708C16.406 30.1902 16.7359 30.5458 16.716 30.9649C16.6962 31.3841 16.3344 31.7081 15.9078 31.6887C15.4811 31.6692 15.1513 31.3137 15.171 30.8945ZM48.7849 42.7704C48.5659 43.2579 48.1679 43.6321 47.6643 43.8239L45.3437 44.7078C45.1071 44.7979 44.8599 44.8429 44.613 44.8429C44.3345 44.8429 44.0562 44.7858 43.7932 44.6717C43.297 44.4566 42.9161 44.0655 42.721 43.5706L42.607 43.2817L41.1119 43.8945C41.1634 44.4131 41.0594 44.9413 40.7989 45.4066C40.4779 45.98 39.9617 46.4069 39.3346 46.6215C39.4802 47.2317 39.4072 47.8925 39.0787 48.4789C38.5791 49.3715 37.6273 49.8669 36.6532 49.8389C36.6384 50.2328 36.5329 50.628 36.3278 50.9942C35.9828 51.6105 35.4122 52.0575 34.7208 52.2529C34.3833 52.3484 34.0377 52.3778 33.7 52.3428C33.6719 52.7038 33.5672 53.0639 33.3791 53.3999C33.0341 54.0162 32.4393 54.4788 31.747 54.6695C31.5077 54.7354 31.265 54.768 31.0245 54.768C30.5736 54.768 30.1304 54.6533 29.7315 54.4283L29.2716 54.1687C28.9349 54.5635 28.4886 54.8554 27.9732 55.0087C27.7103 55.087 27.4418 55.1258 27.1751 55.1258C26.7329 55.1258 26.2956 55.0192 25.8958 54.8092C25.376 54.536 24.9756 54.116 24.7303 53.6213C24.0424 53.8424 23.27 53.7959 22.5936 53.4404C22.1366 53.2003 21.7703 52.8426 21.5216 52.4195C20.7836 52.733 19.9136 52.726 19.1529 52.3263C18.512 51.9895 18.0424 51.426 17.8307 50.7394C17.737 50.4358 17.6989 50.1247 17.7151 49.8176C17.3453 49.7902 16.9784 49.6887 16.6388 49.5102C15.3122 48.8132 14.8102 47.1858 15.5197 45.8825L16.0923 44.8307C15.9698 44.5082 15.9048 44.1697 15.8458 43.8577C15.767 43.4418 15.6778 42.9704 15.4968 42.9014C15.3925 42.8617 15.1569 42.7656 14.3538 42.4151L14.1995 42.7581C13.9812 43.2435 13.5823 43.6168 13.0765 43.8091C12.8382 43.8997 12.5898 43.9449 12.3421 43.9449C12.0642 43.9449 11.7871 43.888 11.5258 43.7745L9.24949 42.786C8.75542 42.5715 8.37546 42.1796 8.17974 41.6827C7.98403 41.1858 7.9965 40.6447 8.21481 40.1592L13.4412 28.5417C13.6595 28.0563 14.0584 27.683 14.5643 27.4907C15.0702 27.2984 15.6208 27.3106 16.115 27.5253L18.3913 28.5137C18.8854 28.7283 19.2654 29.1202 19.4611 29.6171C19.6568 30.114 19.6443 30.6551 19.4259 31.1406L19.1288 31.8011L20.3974 32.3761C20.4192 32.3859 20.4404 32.3965 20.4611 32.408C21.159 32.7938 21.8921 32.6528 23.0306 32.3908C24.4499 32.064 26.1904 31.6648 28.2331 32.7906C31.061 31.1315 33.2298 32.0006 34.8364 32.6458C35.9492 33.0926 36.6088 33.3301 37.2239 33.0158L38.3274 32.4355L38.0481 31.7275C37.8528 31.2327 37.8658 30.6916 38.0848 30.2041C38.3038 29.7166 38.7018 29.3426 39.2054 29.1506L41.5261 28.2668C42.5683 27.8697 43.745 28.38 44.149 29.4038L48.8222 41.2467C49.017 41.742 49.0039 42.283 48.7849 42.7704ZM12.57 42.0508L13.0874 40.9006C13.0874 40.9005 13.0875 40.9003 13.0875 40.9003C13.0875 40.9002 13.0876 40.9002 13.0876 40.9001L17.7964 30.4334C17.8314 30.3552 17.8134 30.2843 17.7995 30.2489C17.7856 30.2134 17.7504 30.1491 17.6708 30.1145L15.3945 29.1261C15.2726 29.0733 15.1239 29.1296 15.07 29.2494L9.84354 40.8669C9.80847 40.945 9.82651 41.016 9.84042 41.0513C9.85434 41.0866 9.88952 41.1511 9.96912 41.1857L12.2454 42.1742C12.325 42.2087 12.3972 42.191 12.4331 42.1773C12.4692 42.1635 12.5348 42.1288 12.57 42.0508ZM18.4745 47.9011L19.9302 45.4258C20.1152 44.992 19.9292 44.4675 19.5055 44.2454C19.0446 44.0037 18.4691 44.1747 18.2231 44.6266L17.8852 45.2473C17.8848 45.2482 17.8842 45.2491 17.8838 45.25L17.09 46.7079C16.8437 47.1603 17.0181 47.7252 17.4785 47.9673C17.7967 48.1345 18.1831 48.1044 18.4745 47.9011ZM21.2781 50.395L22.9083 47.2931C22.9708 46.906 22.7754 46.5076 22.4221 46.3223C22.1002 46.1535 21.7106 46.1856 21.4185 46.393L19.9397 48.9077L19.6042 49.5238C19.4859 49.7411 19.4614 49.9926 19.5351 50.2318C19.6089 50.4711 19.7714 50.6668 19.9927 50.7831C20.4524 51.0249 21.0289 50.8507 21.2781 50.395ZM24.6203 51.656L26.0555 48.946C26.1175 48.5592 25.9222 48.1613 25.5691 47.9761C25.2175 47.792 24.7759 47.8507 24.4835 48.1103L22.9363 51.0541C22.9287 51.4024 23.1175 51.7315 23.4335 51.8976C23.8369 52.1094 24.3379 52.0042 24.6203 51.656ZM28.0176 52.8847L29.1041 50.8887C29.275 50.5749 29.2449 50.1844 29.0277 49.8941C28.9452 49.7839 28.8403 49.6949 28.7159 49.6296C28.3644 49.445 27.9224 49.5041 27.6299 49.7646L26.2389 52.3911C26.2199 52.7478 26.4132 53.0969 26.7358 53.2664C26.957 53.3827 27.2131 53.4067 27.4565 53.3343C27.7 53.2616 27.8993 53.102 28.0176 52.8847ZM31.462 51.357C31.422 51.335 31.3854 51.3097 31.3504 51.2829L30.926 51.0468C30.8733 51.2767 30.7906 51.5014 30.6749 51.7139L30.1633 52.6539L30.6187 52.9109C30.8123 53.0202 31.0422 53.0463 31.2663 52.9845C31.5011 52.9199 31.7024 52.7639 31.8184 52.5567C32.0551 52.1338 31.8952 51.5956 31.462 51.357ZM39.2535 43.7616C39.1708 43.5944 39.0396 43.4569 38.8738 43.364L32.7021 39.9081C31.7542 39.3774 30.4948 39.8785 29.0363 40.4585C26.8432 41.3306 23.8399 42.525 21.3426 39.3681C21.148 39.1226 21.0703 38.8053 21.1301 38.4984C21.1903 38.1906 21.3825 37.9238 21.6576 37.766C23.3804 36.7781 24.8338 35.7014 25.9777 34.5658C26.1836 34.3614 26.3908 34.1682 26.5986 33.9857C25.4772 33.6255 24.4787 33.855 23.4366 34.0948C22.2692 34.3635 20.9473 34.6678 19.6206 33.9514L18.4082 33.4019L15.0735 40.8144C15.7791 41.1224 16.0479 41.2345 16.1409 41.2699C16.9554 41.5805 17.2836 42.2643 17.4559 42.8968C18.2751 42.3149 19.3942 42.203 20.3443 42.7013C21.0673 43.0804 21.5488 43.7403 21.7184 44.4757C22.2401 44.427 22.7774 44.5248 23.2608 44.7783C23.8569 45.0908 24.2937 45.5949 24.5224 46.1806C25.144 46.0428 25.8124 46.1198 26.4079 46.4321C27.004 46.7446 27.4408 47.2485 27.6694 47.8342C28.2916 47.6961 28.9599 47.7734 29.5554 48.086C29.8621 48.247 30.1283 48.4591 30.3495 48.717C30.3589 48.7219 30.3684 48.7258 30.3777 48.7309L33.5573 50.4992C33.7612 50.6103 33.9994 50.6359 34.2282 50.5713C34.4607 50.5055 34.6521 50.3563 34.7671 50.1508C35.0024 49.7307 34.8409 49.1938 34.4072 48.954C34.367 48.9318 34.3302 48.9062 34.295 48.8791L29.8479 46.4206C29.4193 46.1836 29.2673 45.6501 29.5084 45.229C29.7497 44.8078 30.2926 44.6586 30.7215 44.8955L36.305 47.9823C36.7366 48.215 37.2808 48.0597 37.5182 47.6357C37.7534 47.2155 37.5918 46.6786 37.1581 46.4388C37.158 46.4388 37.1579 46.4387 37.1578 46.4385C35.8485 45.7181 34.3648 44.9016 32.9047 44.0805C32.4779 43.8405 32.3299 43.3058 32.5743 42.8865C32.8187 42.4673 33.3627 42.3216 33.7897 42.5619C35.2428 43.3792 36.7232 44.1937 38.0293 44.9125C38.0295 44.9127 38.0298 44.9128 38.0301 44.913C38.2317 45.0239 38.4681 45.0497 38.6959 44.9856C38.9301 44.9198 39.1226 44.7699 39.2382 44.5636C39.3769 44.3151 39.3826 44.023 39.2535 43.7616ZM41.9628 41.6495L38.9758 34.0795L38.0549 34.5637C36.6683 35.2723 35.3942 34.7606 34.1621 34.2659C32.5498 33.6184 31.0269 33.007 28.7487 34.5425C28.7486 34.5425 28.7486 34.5426 28.7485 34.5426C28.7472 34.5435 28.7459 34.5443 28.7447 34.5452C28.2505 34.8774 27.746 35.298 27.2438 35.7967C26.1527 36.88 24.8161 37.9077 23.263 38.8583C24.6897 40.1922 26.1838 39.705 28.368 38.8363C30.0978 38.1484 31.8865 37.4371 33.5842 38.3877L39.756 41.8437C39.9816 41.9701 40.1855 42.1255 40.363 42.3052L41.9628 41.6495ZM47.1608 41.8797L42.4876 30.0368C42.4503 29.9423 42.3546 29.8831 42.2556 29.8831C42.2267 29.8831 42.1975 29.8881 42.1693 29.8989L39.8488 30.7827C39.7678 30.8136 39.7296 30.8763 39.714 30.911C39.6984 30.9457 39.677 31.0157 39.7084 31.0953L44.3816 42.9382C44.413 43.0178 44.4769 43.0554 44.5122 43.0707C44.5475 43.086 44.6189 43.1071 44.6998 43.0761L47.0203 42.1923C47.1447 42.1449 47.209 42.0018 47.1608 41.8797ZM41.5359 30.9158C41.1099 30.9158 40.7626 31.2571 40.7626 31.6755C40.7626 32.094 41.1099 32.4353 41.5359 32.4353C41.9618 32.4353 42.3092 32.094 42.3092 31.6755C42.3092 31.2571 41.9618 30.9158 41.5359 30.9158ZM10.0723 12.5225C10.0725 12.5171 10.0733 12.5118 10.0738 12.5065C10.0753 12.4815 10.0778 12.4566 10.0817 12.4318C10.0829 12.4237 10.0848 12.4157 10.0862 12.4077C10.0902 12.3861 10.0947 12.3645 10.1004 12.3431C10.1029 12.3335 10.1061 12.3239 10.1088 12.3144C10.1146 12.2953 10.1209 12.2762 10.128 12.2573C10.1322 12.2462 10.1369 12.2353 10.1416 12.2244C10.1487 12.2078 10.1563 12.1913 10.1645 12.175C10.1706 12.1628 10.1771 12.1509 10.1838 12.1391C10.188 12.1317 10.1914 12.1239 10.1959 12.1166L15.2022 3.8185C15.204 3.81555 15.2063 3.81292 15.2081 3.80997C15.2454 3.74981 15.2893 3.69491 15.339 3.64623C15.3455 3.63989 15.3523 3.63398 15.359 3.62786C15.3779 3.61047 15.3975 3.59384 15.4177 3.5782C15.4261 3.57175 15.4342 3.5653 15.4428 3.55917C15.4674 3.54145 15.4928 3.52494 15.519 3.50984C15.5224 3.50787 15.5255 3.50558 15.5288 3.50372C15.5582 3.48731 15.5887 3.4732 15.6198 3.46019C15.6293 3.45625 15.6389 3.45286 15.6485 3.44914C15.6723 3.44006 15.6965 3.43208 15.7212 3.42508C15.7307 3.42234 15.74 3.41961 15.7495 3.4172C15.8174 3.40025 15.8875 3.39106 15.959 3.39041C15.9621 3.39041 15.9651 3.38986 15.9681 3.38986C15.9737 3.38986 15.9791 3.39084 15.9846 3.39095C16.0118 3.3915 16.0391 3.39325 16.0666 3.3962C16.0768 3.3973 16.087 3.39828 16.0973 3.39981C16.1252 3.40386 16.1531 3.40944 16.181 3.41611C16.1879 3.41775 16.1949 3.41884 16.2017 3.4207C16.2032 3.42103 16.2046 3.42125 16.2059 3.42169C18.7351 4.1102 19.6128 3.78339 20.724 3.36963C21.8036 2.96756 23.0137 2.51759 25.5225 2.89505C25.9795 1.71533 27.1416 0.875 28.5001 0.875C29.8587 0.875 31.0207 1.71533 31.4775 2.89461C33.9862 2.51716 35.1964 2.96713 36.2761 3.36919C37.3873 3.78295 38.2652 4.10977 40.7942 3.42125C40.7957 3.42081 40.7971 3.4207 40.7985 3.42027C40.8051 3.41852 40.8119 3.41753 40.8186 3.41589C40.847 3.409 40.8753 3.40342 40.9036 3.39927C40.9133 3.39784 40.923 3.39697 40.9327 3.39587C40.961 3.3927 40.9891 3.39095 41.0172 3.39041C41.0222 3.3903 41.0271 3.38942 41.0321 3.38942C41.0349 3.38942 41.0376 3.38997 41.0405 3.38997C41.1126 3.39062 41.1835 3.39992 41.252 3.41709C41.2606 3.41928 41.2689 3.4218 41.2774 3.4242C41.3032 3.43153 41.3286 3.43995 41.3536 3.44947C41.3623 3.45275 41.371 3.45581 41.3796 3.45942C41.4112 3.47266 41.4422 3.48709 41.4722 3.50383C41.4742 3.50492 41.476 3.50623 41.478 3.50733C41.5058 3.52319 41.5325 3.54069 41.5585 3.55939C41.5664 3.56508 41.5741 3.5712 41.5819 3.57711C41.6028 3.5933 41.6229 3.61036 41.6424 3.6283C41.6486 3.63409 41.6551 3.63967 41.6612 3.64569C41.7112 3.69458 41.7553 3.7497 41.7927 3.81008C41.7945 3.81292 41.7967 3.81544 41.7985 3.81839L46.8048 12.1165C46.8093 12.1238 46.8126 12.1315 46.8168 12.139C46.8235 12.1509 46.8301 12.1628 46.8362 12.1751C46.8444 12.1914 46.852 12.2079 46.859 12.2244C46.8637 12.2353 46.8684 12.2463 46.8726 12.2573C46.8798 12.2762 46.8861 12.2953 46.8918 12.3144C46.8946 12.3239 46.8978 12.3335 46.9002 12.3431C46.9059 12.3645 46.9103 12.3861 46.9144 12.4077C46.9158 12.4158 46.9177 12.4237 46.9189 12.4318C46.9227 12.4565 46.9252 12.4813 46.9267 12.5062C46.927 12.5116 46.9279 12.517 46.9282 12.5226C46.9296 12.5535 46.9295 12.5844 46.9276 12.6151C46.9276 12.6159 46.9274 12.6167 46.9274 12.6175C46.9255 12.6467 46.9219 12.6758 46.9171 12.7046C46.9168 12.7066 46.9168 12.7087 46.9164 12.7108C46.4228 15.5304 43.9482 17.5769 41.0323 17.5769C38.1164 17.5769 35.6418 15.5304 35.1483 12.7108C35.148 12.7087 35.148 12.7066 35.1475 12.7046C35.1426 12.6758 35.1392 12.6467 35.1373 12.6175C35.1373 12.6167 35.1371 12.6159 35.1371 12.6151C35.1352 12.5844 35.1351 12.5534 35.1365 12.5225C35.1367 12.5171 35.1375 12.5118 35.138 12.5065C35.1395 12.4815 35.142 12.4566 35.1459 12.4318C35.1471 12.4237 35.149 12.4157 35.1504 12.4077C35.1544 12.3861 35.1589 12.3645 35.1646 12.3431C35.1671 12.3335 35.1702 12.3239 35.173 12.3144C35.1788 12.2953 35.185 12.2762 35.1922 12.2573C35.1964 12.2462 35.2011 12.2353 35.2058 12.2244C35.2129 12.2078 35.2205 12.1913 35.2287 12.175C35.2348 12.1628 35.2413 12.1509 35.2479 12.1391C35.2522 12.1317 35.2556 12.1239 35.2601 12.1166L39.2434 5.51414C38.9084 5.55198 38.602 5.56905 38.3196 5.56905C37.158 5.56905 36.3942 5.28456 35.6454 5.00577C34.6738 4.64406 33.7508 4.30106 31.6183 4.64439C31.3776 5.7773 30.5114 6.68653 29.3921 7.00766L29.3949 17.9889C30.5692 16.9268 32.1353 16.2767 33.8535 16.2767C37.4869 16.2767 40.443 19.181 40.443 22.7507C40.443 26.3203 37.4869 29.2245 33.8535 29.2245C30.8794 29.2245 28.3604 27.2782 27.5436 24.6145H20.8669C20.5602 24.6145 20.2751 24.4594 20.1122 24.204C19.9494 23.9486 19.9318 23.6289 20.0656 23.3578C21.5131 20.4246 24.4021 18.5082 27.6137 18.2054L27.611 7.00809C26.4909 6.6873 25.6239 5.77773 25.3831 4.64439C23.2506 4.30117 22.3274 4.64406 21.356 5.00577C20.6072 5.28456 19.843 5.56905 18.6818 5.56905C18.3992 5.56905 18.093 5.55198 17.758 5.51414L21.7412 12.1166C21.7455 12.1239 21.749 12.1314 21.7531 12.1388C21.7599 12.1509 21.7664 12.163 21.7727 12.1754C21.7808 12.1915 21.7882 12.2077 21.7952 12.224C21.8 12.2352 21.8047 12.2464 21.8091 12.2578C21.8161 12.2764 21.8222 12.2951 21.828 12.314C21.831 12.3238 21.8341 12.3336 21.8367 12.3435C21.8423 12.3647 21.8467 12.3861 21.8506 12.4074C21.8522 12.4157 21.8541 12.4238 21.8553 12.4321C21.8591 12.4566 21.8614 12.4812 21.8631 12.5059C21.8634 12.5116 21.8643 12.5172 21.8645 12.5228C21.866 12.5537 21.8659 12.5846 21.864 12.6153C21.864 12.6161 21.8638 12.617 21.8638 12.6177C21.8619 12.6469 21.8583 12.676 21.8535 12.7048C21.8532 12.7069 21.8532 12.7089 21.8527 12.711C21.3592 15.5306 18.8846 17.5771 15.9687 17.5771C13.0528 17.5771 10.5782 15.5306 10.0847 12.711C10.0843 12.7089 10.0843 12.7069 10.0839 12.7048C10.079 12.676 10.0755 12.6469 10.0737 12.6177C10.0737 12.617 10.0734 12.6161 10.0734 12.6153C10.071 12.5844 10.071 12.5534 10.0723 12.5225ZM41.0321 5.98052L37.5891 11.6876H44.4753L41.0321 5.98052ZM44.8386 13.4375H37.2255C37.8939 14.8678 39.3594 15.8269 41.032 15.8269C42.7046 15.8269 44.1702 14.8678 44.8386 13.4375ZM27.2665 22.8643C27.2658 22.8262 27.2636 22.7886 27.2636 22.7503C27.2636 21.7415 27.5 20.786 27.9208 19.9339C25.7581 20.0993 23.7631 21.168 22.4525 22.8642L27.2665 22.8643ZM29.0447 22.7504C29.0447 25.3552 31.2017 27.4742 33.853 27.4742C36.5043 27.4742 38.6613 25.3551 38.6613 22.7504C38.6613 20.1458 36.5043 18.0265 33.853 18.0265C31.2017 18.0265 29.0447 20.1457 29.0447 22.7504ZM27.0965 4.004C27.0965 4.76438 27.7262 5.383 28.5002 5.383C29.2742 5.383 29.9039 4.76438 29.9039 4.004C29.9039 3.24363 29.2742 2.625 28.5001 2.625C27.7262 2.625 27.0965 3.24363 27.0965 4.004ZM19.7748 13.4375H12.1616C12.83 14.8678 14.2956 15.8269 15.9681 15.8269C17.6407 15.8269 19.1064 14.8678 19.7748 13.4375ZM19.4113 11.6875L15.9683 5.98052L12.5252 11.6875H19.4113ZM30.544 23.5259L32.1068 25.0612C32.2803 25.2316 32.5083 25.3175 32.7367 25.3175C32.9507 25.3175 33.165 25.2421 33.3351 25.0904L37.1308 21.7062C37.495 21.3815 37.5224 20.8281 37.1918 20.4703C36.8613 20.1124 36.2981 20.0855 35.9337 20.4104L32.7664 23.2343L31.8037 22.2884C31.4559 21.9468 30.892 21.9468 30.5442 22.2884C30.1961 22.6301 30.1962 23.1842 30.544 23.5259Z"
                                        fill="url(#paint0_linear_119_445)"
                                    />
                                    <defs>
                                        <linearGradient id="paint0_linear_119_445" x1="10.6439" y1="44.347" x2="46.2254" y2="8.12992" gradientUnits="userSpaceOnUse">
                                            <stop stop-color="#FCC60E" />
                                            <stop offset="1" stop-color="#E92E29" />
                                        </linearGradient>
                                    </defs>
                                </svg>