<svg  width="52" height="50" viewBox="0 0 52 51" fill="none"
    xmlns="http://www.w3.org/2000/svg">
    <path
        d="M30.4771 10.9439C30.2107 10.3103 29.8964 9.69518 29.5359 9.10649L30.9239 7.74523C31.2412 7.43405 31.2413 6.92953 30.9239 6.61835L27.2431 3.0082C27.0907 2.85879 26.884 2.77482 26.6685 2.77482C26.453 2.77482 26.2463 2.85879 26.094 3.0082L24.7062 4.36937C23.5165 3.66772 22.2393 3.14855 20.8955 2.82014V0.896484C20.8955 0.45641 20.5317 0.0996094 20.083 0.0996094H14.8775C14.4288 0.0996094 14.065 0.45641 14.065 0.896484V2.82014C12.7206 3.14875 11.4435 3.66792 10.2543 4.36937L8.86654 3.0084C8.54936 2.69722 8.03494 2.69722 7.71756 3.0084L4.03663 6.61835C3.88429 6.76776 3.79867 6.97046 3.79867 7.18184C3.79867 7.39321 3.88429 7.59581 4.03663 7.74533L5.42448 9.10649C4.70918 10.2733 4.17973 11.5259 3.84488 12.8439H1.8833C1.4346 12.8439 1.0708 13.2007 1.0708 13.6408V18.7462C1.0708 19.1863 1.4346 19.5431 1.8833 19.5431H3.84488C4.17993 20.8616 4.70928 22.1141 5.42438 23.2804L4.03653 24.6416C3.71925 24.9527 3.71925 25.4573 4.03653 25.7684L7.71736 29.3786C7.8697 29.5281 8.07638 29.6121 8.29189 29.6121C8.50741 29.6121 8.71409 29.5281 8.86643 29.3786L10.2545 28.0172C10.9815 28.4454 11.7464 28.807 12.5386 29.099C12.8772 30.6759 13.4673 32.1952 14.2951 33.5933C15.6232 35.8362 17.5261 37.7236 19.7983 39.0513C20.4828 39.4514 20.8598 40.1018 20.8598 40.8831V44.4051C20.8598 45.6624 21.7149 46.7272 22.8844 47.0707V47.1741C22.8844 49.2288 24.5887 50.9004 26.6836 50.9004H28.8018C30.8968 50.9004 32.6011 49.2288 32.6011 47.1741V47.0707C33.7707 46.7272 34.6256 45.6624 34.6256 44.4051V40.8831C34.6256 40.1018 35.0026 39.4514 35.6871 39.0513C37.9592 37.7236 39.8622 35.8362 41.1903 33.5933C42.5595 31.2809 43.2832 28.6376 43.2832 25.9489C43.2832 18.4595 37.7467 12.2146 30.4771 10.9439ZM10.5907 26.34C10.2685 26.1291 9.8392 26.1706 9.56508 26.4394L8.29189 27.6882L5.76014 25.205L7.03333 23.9562C7.30735 23.6874 7.3497 23.2664 7.13459 22.9503C6.22997 21.621 5.61003 20.1542 5.29194 18.5903C5.21618 18.2177 4.88264 17.9493 4.49518 17.9493H2.6958V14.4377H4.49518C4.88264 14.4377 5.21628 14.1693 5.29204 13.7966C5.60973 12.2335 6.22967 10.7666 7.13469 9.43639C7.3498 9.12033 7.30735 8.69929 7.03333 8.43064L5.76014 7.18184L8.292 4.69877L9.56508 5.94738C9.839 6.21612 10.2684 6.25766 10.5907 6.04669C11.9461 5.15937 13.4419 4.55135 15.0364 4.23947C15.4163 4.16507 15.6899 3.83795 15.6899 3.45794V1.69336H19.2704V3.45794C19.2704 3.83795 19.544 4.16517 19.924 4.23947C21.5177 4.55095 23.0135 5.15897 24.3698 6.04669C24.6921 6.25746 25.1214 6.21612 25.3953 5.94728L26.6684 4.69867L29.2003 7.18184L27.9272 8.43044C27.6532 8.69919 27.6108 9.12023 27.8259 9.4363C28.1087 9.85187 28.3643 10.2847 28.5926 10.7305C28.3112 10.7156 28.0279 10.7074 27.7427 10.7074C26.6907 10.7074 25.6628 10.811 24.6688 11.0074C22.9881 8.76483 20.3413 7.44192 17.4803 7.44192C12.5602 7.44192 8.55748 11.3677 8.55748 16.1932C8.55748 19.0655 10.0244 21.7782 12.4205 23.4017C12.2778 24.2303 12.2024 25.0809 12.2024 25.9487C12.2024 26.3867 12.2236 26.8233 12.2617 27.2577C11.6827 26.9947 11.1235 26.6886 10.5907 26.34ZM22.9476 11.451C18.0753 13.0048 14.252 16.8593 12.8171 21.7014C11.1506 20.3518 10.1825 18.3614 10.1825 16.1934C10.1825 12.2467 13.4562 9.03586 17.4803 9.03586C19.5981 9.03577 21.5723 9.92259 22.9476 11.451ZM28.8018 49.3066H26.6836C25.4895 49.3066 24.5176 48.3572 24.5101 47.1876H30.9754C30.9679 48.3572 29.9961 49.3066 28.8018 49.3066ZM31.7886 45.5939H23.6969C23.0285 45.5939 22.4848 45.0606 22.4848 44.4051V43.7512H33.0006V44.4051C33.0006 45.0606 32.457 45.5939 31.7886 45.5939ZM25.2313 29.5964C22.9229 29.0546 21.4561 27.8138 21.4561 26.6714C21.4561 25.6506 22.3028 24.8202 23.3438 24.8202C24.3846 24.8202 25.2313 25.6506 25.2313 26.6714V29.5964ZM28.6292 42.1575H26.8563V31.4413C27.4372 31.4791 28.0482 31.4791 28.6292 31.4413V42.1575ZM34.8553 37.6822C33.6766 38.371 33.0006 39.5378 33.0006 40.8831V42.1575H30.2542V31.232C33.4232 30.609 35.6544 28.8274 35.6544 26.6714C35.6544 24.7719 34.0786 23.2264 32.1418 23.2264C30.2049 23.2264 28.6292 24.7719 28.6292 26.6714V29.8432C28.0544 29.8864 27.4311 29.8864 26.8563 29.8432V26.6714C26.8563 24.7719 25.2806 23.2264 23.3438 23.2264C21.4069 23.2264 19.8311 24.7719 19.8311 26.6714C19.8311 28.8275 22.0622 30.609 25.2313 31.232V42.1575H22.4848V40.8831C22.4848 39.5377 21.8088 38.371 20.6301 37.6822C16.434 35.2301 13.8274 30.7342 13.8274 25.9489C13.8274 18.4236 20.0698 12.3013 27.7428 12.3013C35.4159 12.3013 41.6583 18.4235 41.6583 25.9489C41.6582 30.7342 39.0515 35.2301 34.8553 37.6822ZM30.2542 29.5964V26.6714C30.2542 25.6506 31.1009 24.8202 32.1418 24.8202C33.1826 24.8202 34.0294 25.6506 34.0294 26.6714C34.0294 27.8138 32.5626 29.0546 30.2542 29.5964ZM43.0574 17.1627C42.8331 16.7816 42.9662 16.2942 43.3548 16.0742L46.6625 14.2011C47.0511 13.9813 47.548 14.1117 47.7724 14.4928C47.9967 14.8739 47.8636 15.3613 47.475 15.5813L44.1673 17.4544C44.0394 17.5268 43.8997 17.5612 43.7618 17.5612C43.4811 17.5612 43.208 17.4183 43.0574 17.1627ZM36.2289 9.7411L38.1386 6.49692C38.3629 6.11582 38.8598 5.98503 39.2485 6.20527C39.637 6.4253 39.7702 6.91269 39.5458 7.2938L37.6361 10.538C37.4857 10.7936 37.2125 10.9365 36.9317 10.9365C36.7939 10.9365 36.6542 10.902 36.5262 10.8296C36.1377 10.6097 36.0045 10.1223 36.2289 9.7411ZM50.9295 25.8499C50.9295 26.29 50.5657 26.6468 50.117 26.6468H46.2975C45.8488 26.6468 45.485 26.29 45.485 25.8499C45.485 25.4099 45.8488 25.0531 46.2975 25.0531H50.117C50.5657 25.0531 50.9295 25.4098 50.9295 25.8499ZM47.7725 37.1764C47.622 37.432 47.3489 37.5749 47.0681 37.5749C46.9302 37.5749 46.7905 37.5405 46.6625 37.4681L43.3548 35.595C42.9662 35.375 42.8331 34.8876 43.0574 34.5065C43.2818 34.1254 43.7789 33.9948 44.1673 34.2148L47.475 36.0879C47.8637 36.3079 47.9968 36.7953 47.7725 37.1764ZM12.4281 34.5065C12.6525 34.8876 12.5193 35.375 12.1308 35.595L8.82297 37.4681C8.695 37.5406 8.55535 37.5749 8.41743 37.5749C8.13661 37.5749 7.8635 37.432 7.71299 37.1764C7.48864 36.7953 7.62179 36.3079 8.01036 36.0879L11.3182 34.2148C11.7068 33.9949 12.2038 34.1255 12.4281 34.5065Z"
        fill="url(#paint0_linear_119_447)"
    />
    <defs>
        <linearGradient id="paint0_linear_119_447" x1="26.0001" y1="0.0996094" x2="26.0001"
            y2="50.9004" gradientUnits="userSpaceOnUse">
            <stop stop-color="#EA5400" />
            <stop offset="1" stop-color="#EC2027" />
        </linearGradient>
    </defs>
</svg>