<svg width="369" height="548" viewBox="0 0 369 548" fill="none" xmlns="http://www.w3.org/2000/svg">
<path d="M233.032 135.968C215.142 118.077 194.279 104.025 171.022 94.1851C146.87 83.9703 121.304 78.8052 94.9879 78.8052C68.6718 78.8052 43.106 83.9991 18.9541 94.1851C-4.30335 104.025 -25.1658 118.077 -43.0561 135.968C-60.9464 153.858 -74.9989 174.72 -84.8386 197.978C-95.0534 222.13 -100.219 247.695 -100.219 274.011C-100.219 300.328 -95.0534 325.893 -84.8386 350.045C-74.9989 373.303 -60.9464 394.165 -43.0561 412.055C-25.1658 429.946 -4.30335 443.998 18.9541 453.838C43.106 464.053 68.6718 469.218 94.9879 469.218C121.304 469.218 146.87 464.053 171.022 453.838C194.279 443.998 215.142 429.946 233.032 412.055C250.922 394.165 264.975 373.303 274.814 350.045C285.029 325.893 290.194 300.328 290.194 274.011C290.194 247.695 285 222.13 274.814 197.978C264.975 174.72 250.922 153.858 233.032 135.968ZM94.9879 429.195C9.43178 429.195 -60.1961 359.596 -60.1961 274.011C-60.1961 188.427 9.40292 118.828 94.9879 118.828C180.573 118.828 250.172 188.427 250.172 274.011C250.172 359.596 180.573 429.195 94.9879 429.195Z" fill="#F6F6F6"/>
<path d="M186.632 57.2799C214.679 69.1394 239.812 86.0775 261.367 107.632C282.922 129.187 299.86 154.32 311.72 182.368C320.636 203.461 326.349 225.449 328.831 248.014C329.206 251.39 332.063 253.987 335.468 253.987H362.332C366.256 253.987 369.373 250.611 368.969 246.686C366.256 219.187 359.447 192.409 348.597 166.786C334.718 133.977 314.894 104.545 289.674 79.3253C264.455 54.1058 235.022 34.2822 202.214 20.4028C176.59 9.55317 149.812 2.74331 122.313 0.0309092C118.418 -0.34421 115.013 2.74331 115.013 6.66763V33.5319C115.013 36.9369 117.581 39.7936 120.957 40.1687C143.522 42.6502 165.51 48.3636 186.603 57.2799" fill="#F6F6F6"/>
<path d="M311.72 365.628C299.86 393.675 282.922 418.808 261.367 440.363C239.812 461.918 214.679 478.856 186.632 490.716C165.539 499.632 143.551 505.345 120.986 507.827C117.61 508.202 115.013 511.059 115.013 514.463V541.328C115.013 545.252 118.389 548.368 122.313 547.965C149.812 545.252 176.59 538.442 202.214 527.593C235.022 513.713 264.455 493.89 289.674 468.67C314.894 443.451 334.718 414.018 348.597 381.21C359.447 355.557 366.256 328.779 368.969 301.309C369.344 297.414 366.256 294.009 362.332 294.009H335.468C332.063 294.009 329.206 296.577 328.831 299.982C326.349 322.547 320.636 344.534 311.72 365.628Z" fill="#F6F6F6"/>
<path d="M3.37221 490.716C-24.6752 478.856 -49.8082 461.918 -71.3631 440.363C-92.9181 418.808 -109.856 393.675 -121.716 365.628C-130.632 344.534 -136.345 322.547 -138.827 299.982C-139.202 296.606 -142.059 294.009 -145.464 294.009H-172.328C-176.252 294.009 -179.369 297.385 -178.965 301.309C-176.252 328.808 -169.442 355.586 -158.593 381.21C-144.713 414.018 -124.89 443.451 -99.6702 468.67C-74.4507 493.89 -45.0182 513.713 -12.2097 527.593C13.4427 538.442 40.2205 545.252 67.6908 547.965C71.5862 548.34 74.9912 545.252 74.9912 541.328V514.463C74.9912 511.059 72.423 508.202 69.047 507.827C46.4821 505.345 24.4943 499.632 3.40106 490.716" fill="#F6F6F6"/>
<path d="M-121.716 182.367C-109.856 154.349 -92.9183 129.187 -71.3634 107.632C-49.8084 86.077 -24.6754 69.1389 3.37198 57.2793C24.4652 48.3631 46.453 42.6497 69.0179 40.1681C72.3939 39.793 74.9909 36.9363 74.9909 33.5314V6.69595C74.9909 2.77162 71.6148 -0.34475 67.6905 0.0592242C40.1914 2.77163 13.4136 9.58148 -12.2388 20.4311C-45.0473 34.3105 -74.4797 54.1341 -99.6993 79.3537C-124.919 104.573 -144.743 134.006 -158.622 166.814C-169.443 192.409 -176.253 219.187 -178.965 246.686C-179.34 250.581 -176.253 253.986 -172.328 253.986H-145.464C-142.059 253.986 -139.202 251.418 -138.827 248.042C-136.346 225.477 -130.632 203.489 -121.716 182.396" fill="#F6F6F6"/>
<path d="M172.291 253.987H200.137C204.494 253.987 207.668 249.861 206.6 245.648C196.241 204.904 164.125 172.788 123.381 162.429C119.169 161.362 115.042 164.536 115.042 168.893V196.738C115.042 199.566 116.831 202.105 119.515 203.029C141.272 210.531 158.498 227.758 166.001 249.515C166.924 252.198 169.463 253.987 172.291 253.987Z" fill="#F6F6F6"/>
<path d="M17.7131 294.038H-10.1323C-14.4894 294.038 -17.6635 298.164 -16.5959 302.377C-6.23679 343.121 25.9081 375.237 66.623 385.596C70.8647 386.664 74.9622 383.49 74.9622 379.132V351.287C74.9622 348.459 73.1731 345.92 70.4896 344.997C48.7326 337.494 31.506 320.268 24.0036 298.511C23.0802 295.827 20.541 294.038 17.7131 294.038Z" fill="#F6F6F6"/>
<path d="M115.013 351.287V379.132C115.013 383.49 119.139 386.664 123.352 385.596C164.096 375.237 196.212 343.121 206.571 302.377C207.639 298.136 204.465 294.038 200.107 294.038H172.262C169.434 294.038 166.895 295.827 165.971 298.511C158.469 320.268 141.242 337.494 119.486 344.997C116.802 345.92 115.013 348.459 115.013 351.287Z" fill="#F6F6F6"/>
<path d="M74.9914 196.708V168.863C74.9914 164.506 70.8651 161.332 66.6522 162.4C25.9085 172.759 -6.20749 204.875 -16.5666 245.618C-17.6342 249.86 -14.4601 253.957 -10.103 253.957H17.7424C20.5703 253.957 23.1095 252.168 24.0329 249.485C31.5353 227.728 48.7619 210.501 70.5189 202.999C73.2024 202.076 74.9914 199.536 74.9914 196.708Z" fill="#F6F6F6"/>
</svg>
