<svg width="432" height="548" viewBox="0 0 432 548" fill="none" xmlns="http://www.w3.org/2000/svg">
<path d="M412.032 135.968C394.141 118.077 373.279 104.025 350.021 94.1851C325.87 83.9703 300.304 78.8052 273.988 78.8052C247.672 78.8052 222.106 83.9991 197.954 94.1851C174.696 104.025 153.834 118.077 135.944 135.968C118.053 153.858 104.001 174.72 94.1612 197.978C83.9464 222.13 78.7812 247.695 78.7812 274.011C78.7812 300.328 83.9464 325.893 94.1612 350.045C104.001 373.303 118.053 394.165 135.944 412.055C153.834 429.946 174.696 443.998 197.954 453.838C222.106 464.053 247.672 469.218 273.988 469.218C300.304 469.218 325.87 464.053 350.021 453.838C373.279 443.998 394.141 429.946 412.032 412.055C429.922 394.165 443.974 373.303 453.814 350.045C464.029 325.893 469.194 300.328 469.194 274.011C469.194 247.695 464 222.13 453.814 197.978C443.974 174.72 429.922 153.858 412.032 135.968ZM273.988 429.195C188.432 429.195 118.804 359.596 118.804 274.011C118.804 188.427 188.403 118.828 273.988 118.828C359.573 118.828 429.172 188.427 429.172 274.011C429.172 359.596 359.573 429.195 273.988 429.195Z" fill="#F6F6F6"/>
<path d="M365.632 57.2799C393.68 69.1394 418.813 86.0775 440.367 107.632C461.922 129.187 478.861 154.32 490.72 182.368C499.636 203.461 505.35 225.449 507.831 248.014C508.206 251.39 511.063 253.987 514.468 253.987H541.332C545.257 253.987 548.373 250.611 547.969 246.686C545.257 219.187 538.447 192.409 527.597 166.786C513.718 133.977 493.894 104.545 468.675 79.3253C443.455 54.1058 414.023 34.2822 381.214 20.4028C355.59 9.55317 328.813 2.74331 301.314 0.0309092C297.418 -0.34421 294.013 2.74331 294.013 6.66763V33.5319C294.013 36.9369 296.581 39.7936 299.957 40.1687C322.522 42.6502 344.51 48.3636 365.603 57.2799" fill="#F6F6F6"/>
<path d="M490.72 365.628C478.861 393.675 461.922 418.808 440.367 440.363C418.813 461.918 393.68 478.856 365.632 490.716C344.539 499.632 322.551 505.345 299.986 507.827C296.61 508.202 294.013 511.059 294.013 514.463V541.328C294.013 545.252 297.389 548.368 301.314 547.965C328.813 545.252 355.59 538.442 381.214 527.593C414.023 513.713 443.455 493.89 468.675 468.67C493.894 443.451 513.718 414.018 527.597 381.21C538.447 355.557 545.257 328.779 547.969 301.309C548.344 297.414 545.257 294.009 541.332 294.009H514.468C511.063 294.009 508.206 296.577 507.831 299.982C505.35 322.547 499.636 344.534 490.72 365.628Z" fill="#F6F6F6"/>
<path d="M182.372 490.716C154.325 478.856 129.192 461.918 107.637 440.363C86.0819 418.808 69.1438 393.675 57.2843 365.628C48.368 344.534 42.6546 322.547 40.1731 299.982C39.798 296.606 36.9413 294.009 33.5364 294.009H6.67203C2.7477 294.009 -0.368676 297.385 0.0352985 301.309C2.7477 328.808 9.55756 355.586 20.4072 381.21C34.2866 414.018 54.1102 443.451 79.3298 468.67C104.549 493.89 133.982 513.713 166.79 527.593C192.443 538.442 219.22 545.252 246.691 547.965C250.586 548.34 253.991 545.252 253.991 541.328V514.463C253.991 511.059 251.423 508.202 248.047 507.827C225.482 505.345 203.494 499.632 182.401 490.716" fill="#F6F6F6"/>
<path d="M57.2838 182.367C69.1434 154.349 86.0815 129.187 107.636 107.632C129.191 86.077 154.324 69.1389 182.372 57.2793C203.465 48.3631 225.453 42.6497 248.018 40.1681C251.394 39.793 253.991 36.9363 253.991 33.5314V6.69595C253.991 2.77162 250.615 -0.34475 246.69 0.0592242C219.191 2.77163 192.413 9.58148 166.761 20.4311C133.952 34.3105 104.52 54.1341 79.3004 79.3537C54.0809 104.573 34.2573 134.006 20.3778 166.814C9.55708 192.409 2.74722 219.187 0.0348154 246.686C-0.340304 250.581 2.74722 253.986 6.67154 253.986H33.5359C36.9408 253.986 39.7975 251.418 40.1726 248.042C42.6542 225.477 48.3675 203.489 57.2838 182.396" fill="#F6F6F6"/>
<path d="M351.291 253.987H379.137C383.494 253.987 386.668 249.861 385.6 245.648C375.241 204.904 343.125 172.788 302.382 162.429C298.169 161.362 294.042 164.536 294.042 168.893V196.738C294.042 199.566 295.831 202.105 298.515 203.029C320.272 210.531 337.499 227.758 345.001 249.515C345.924 252.198 348.464 253.987 351.291 253.987Z" fill="#F6F6F6"/>
<path d="M196.713 294.038H168.868C164.51 294.038 161.336 298.164 162.404 302.377C172.763 343.121 204.908 375.237 245.623 385.596C249.864 386.664 253.962 383.49 253.962 379.132V351.287C253.962 348.459 252.173 345.92 249.489 344.997C227.732 337.494 210.506 320.268 203.003 298.511C202.08 295.827 199.541 294.038 196.713 294.038Z" fill="#F6F6F6"/>
<path d="M294.013 351.287V379.132C294.013 383.49 298.139 386.664 302.352 385.596C343.096 375.237 375.212 343.121 385.571 302.377C386.639 298.136 383.465 294.038 379.108 294.038H351.262C348.434 294.038 345.895 295.827 344.972 298.511C337.469 320.268 320.243 337.494 298.486 344.997C295.802 345.92 294.013 348.459 294.013 351.287Z" fill="#F6F6F6"/>
<path d="M253.991 196.708V168.863C253.991 164.506 249.865 161.332 245.652 162.4C204.908 172.759 172.792 204.875 162.433 245.618C161.366 249.86 164.54 253.957 168.897 253.957H196.742C199.57 253.957 202.109 252.168 203.033 249.485C210.535 227.728 227.762 210.501 249.519 202.999C252.202 202.076 253.991 199.536 253.991 196.708Z" fill="#F6F6F6"/>
</svg>
