<svg width="297" height="86" viewBox="0 0 297 86" fill="none" xmlns="http://www.w3.org/2000/svg">
<path d="M64.2893 21.2608C61.5014 18.4754 58.2504 16.2874 54.6261 14.7554C50.8625 13.165 46.8785 12.3608 42.7776 12.3608C38.6767 12.3608 34.6927 13.1695 30.9291 14.7554C27.3048 16.2874 24.0538 18.4754 21.2659 21.2608C18.478 24.0462 16.2882 27.2944 14.7548 30.9155C13.163 34.6759 12.3582 38.6564 12.3582 42.7537C12.3582 46.851 13.163 50.8315 14.7548 54.5918C16.2882 58.2129 18.478 61.4611 21.2659 64.2466C24.0538 67.032 27.3048 69.2199 30.9291 70.7519C34.6927 72.3423 38.6767 73.1465 42.7776 73.1465C46.8785 73.1465 50.8625 72.3423 54.6261 70.7519C58.2504 69.2199 61.5014 67.032 64.2893 64.2466C67.0772 61.4611 69.267 58.2129 70.8004 54.5918C72.3922 50.8315 73.1971 46.851 73.1971 42.7537C73.1971 38.6564 72.3877 34.6759 70.8004 30.9155C69.267 27.2944 67.0772 24.0462 64.2893 21.2608ZM42.7776 66.9152C29.4452 66.9152 18.5949 56.0789 18.5949 42.7537C18.5949 29.4285 29.4407 18.5922 42.7776 18.5922C56.1145 18.5922 66.9603 29.4285 66.9603 42.7537C66.9603 56.0789 56.1145 66.9152 42.7776 66.9152Z" fill="#ED1C24"/>
<path d="M57.059 9.00956C61.4297 10.856 65.3462 13.4932 68.7052 16.8493C72.0641 20.2053 74.7036 24.1184 76.5517 28.4852C77.9412 31.7694 78.8315 35.1928 79.2182 38.706C79.2766 39.2317 79.7218 39.636 80.2524 39.636H84.4387C85.0503 39.636 85.5359 39.1104 85.4729 38.4994C85.0503 34.2179 83.9891 30.0487 82.2984 26.0592C80.1355 20.951 77.0463 16.3685 73.1163 12.442C69.1863 8.51537 64.5998 5.42891 59.4871 3.26794C55.4942 1.5787 51.3213 0.518431 47.0361 0.096121C46.429 0.0377164 45.8984 0.518431 45.8984 1.12943V5.3121C45.8984 5.84223 46.2986 6.28701 46.8247 6.34541C50.3411 6.73178 53.7675 7.62133 57.0545 9.00956" fill="#ED1C24"/>
<path d="M76.5517 57.0185C74.7036 61.3853 72.0641 65.2984 68.7052 68.6544C65.3462 72.0105 61.4297 74.6477 57.059 76.4941C53.772 77.8824 50.3456 78.7719 46.8292 79.1583C46.3031 79.2167 45.8984 79.6615 45.8984 80.1916V84.3743C45.8984 84.9853 46.4245 85.4705 47.0361 85.4076C51.3213 84.9853 55.4942 83.925 59.4871 82.2358C64.5998 80.0748 69.1863 76.9883 73.1163 73.0617C77.0463 69.1352 80.1355 64.5526 82.2984 59.4445C83.9891 55.4505 85.0503 51.2813 85.4729 47.0043C85.5314 46.3978 85.0503 45.8677 84.4387 45.8677H80.2524C79.7218 45.8677 79.2766 46.2675 79.2182 46.7977C78.8315 50.3109 77.9412 53.7343 76.5517 57.0185Z" fill="#ED1C24"/>
<path d="M28.5013 76.4941C24.1306 74.6477 20.214 72.0105 16.8551 68.6544C13.4961 65.2984 10.8566 61.3853 9.00853 57.0185C7.61908 53.7343 6.72875 50.3109 6.34205 46.7977C6.28359 46.272 5.83843 45.8677 5.30783 45.8677H1.1215C0.509967 45.8677 0.0243355 46.3933 0.0872877 47.0043C0.509967 51.2858 1.57116 55.455 3.26188 59.4445C5.42474 64.5527 8.5139 69.1352 12.4439 73.0617C16.3739 76.9883 20.9605 80.0748 26.0731 82.2358C30.0706 83.925 34.2434 84.9853 38.5242 85.4076C39.1312 85.466 39.6618 84.9853 39.6618 84.3743V80.1916C39.6618 79.6615 39.2616 79.2167 38.7355 79.1583C35.2192 78.7719 31.7928 77.8824 28.5057 76.4941" fill="#ED1C24"/>
<path d="M9.00858 28.4853C10.8567 24.123 13.4962 20.2054 16.8551 16.8493C20.2141 13.4933 24.1306 10.8561 28.5013 9.00966C31.7883 7.62142 35.2147 6.73188 38.731 6.34551C39.2571 6.2871 39.6618 5.84233 39.6618 5.3122V1.13402C39.6618 0.523021 39.1357 0.0378134 38.5242 0.100711C34.239 0.523021 30.0661 1.58329 26.0686 3.27253C20.956 5.4335 16.3695 8.51996 12.4395 12.4465C8.50945 16.3731 5.42029 20.9556 3.25743 26.0638C1.57121 30.0488 0.510016 34.218 0.0873362 38.4995C0.0288805 39.106 0.510016 39.6361 1.12155 39.6361H5.30788C5.83848 39.6361 6.28364 39.2363 6.3421 38.7106C6.7288 35.1974 7.61913 31.774 9.00858 28.4898" fill="#ED1C24"/>
<path d="M54.8243 39.6362H59.1635C59.8425 39.6362 60.3371 38.9938 60.1708 38.3379C58.5565 31.9942 53.5518 26.9939 47.2026 25.381C46.5461 25.2148 45.9031 25.709 45.9031 26.3874V30.7228C45.9031 31.1631 46.1819 31.5584 46.6 31.7022C49.9905 32.8703 52.6749 35.5524 53.8441 38.9399C53.9879 39.3577 54.3836 39.6362 54.8243 39.6362Z" fill="#ED1C24"/>
<path d="M30.7356 45.8721H26.3964C25.7174 45.8721 25.2227 46.5145 25.3891 47.1704C27.0034 53.5141 32.0126 58.5144 38.3573 60.1273C39.0183 60.2935 39.6568 59.7993 39.6568 59.1209V54.7855C39.6568 54.3452 39.378 53.9499 38.9598 53.8061C35.5694 52.638 32.8849 49.9559 31.7158 46.5684C31.5719 46.1506 31.1762 45.8721 30.7356 45.8721Z" fill="#ED1C24"/>
<path d="M45.8984 54.7855V59.1209C45.8984 59.7993 46.5414 60.2935 47.198 60.1273C53.5471 58.5144 58.5518 53.5141 60.1661 47.1704C60.3325 46.51 59.8379 45.8721 59.1589 45.8721H54.8197C54.379 45.8721 53.9833 46.1506 53.8394 46.5684C52.6703 49.9559 49.9858 52.638 46.5954 53.8061C46.1772 53.9499 45.8984 54.3452 45.8984 54.7855Z" fill="#ED1C24"/>
<path d="M39.6617 30.7179V26.3825C39.6617 25.7041 39.0187 25.2099 38.3622 25.3762C32.013 26.989 27.0083 31.9893 25.394 38.333C25.2276 38.9934 25.7223 39.6314 26.4012 39.6314H30.7404C31.1811 39.6314 31.5768 39.3528 31.7207 38.935C32.8898 35.5475 35.5743 32.8654 38.9647 31.6973C39.3829 31.5536 39.6617 31.1582 39.6617 30.7179Z" fill="#ED1C24"/>
<path d="M92.8428 51.3168H94.3716V60.6076H92.8428V51.3168ZM100.123 60.6076V51.3168H101.184L101.647 53.0689V60.6076H100.118H100.123ZM106.566 60.6076L101 53.3475L101.184 51.3168L106.751 58.5769L106.566 60.6076ZM106.566 60.6076L106.099 58.9768V51.3168H107.628V60.6076H106.566ZM112.691 51.3168H120.276V52.7095H112.691V51.3168ZM115.721 51.5819H117.25V60.6076H115.721V51.5819ZM125.34 51.3168H126.868V60.6076H125.34V51.3168ZM126.387 51.3168H131.527V52.7095H126.387V51.3168ZM126.387 55.194H131.145V56.5328H126.387V55.194ZM126.387 59.2149H131.594V60.6076H126.387V59.2149ZM136.909 51.3168H138.438V60.6076H136.909V51.3168ZM137.957 56.6676V55.4051H140.309C140.776 55.4051 141.145 55.2838 141.406 55.0412C141.667 54.7986 141.797 54.4617 141.797 54.0259C141.797 53.635 141.667 53.3071 141.41 53.042C141.154 52.7769 140.79 52.6421 140.322 52.6421H137.957V51.3123H140.39C140.974 51.3123 141.487 51.4291 141.932 51.6627C142.373 51.8964 142.719 52.2153 142.962 52.6197C143.205 53.024 143.326 53.4823 143.326 53.9944C143.326 54.5336 143.205 55.0053 142.962 55.4006C142.719 55.8005 142.377 56.1105 141.932 56.3306C141.487 56.5508 140.974 56.6631 140.39 56.6631H137.957V56.6676ZM142.009 60.6076L138.753 56.5732L140.174 56.0566L143.933 60.6076H142.009ZM148.29 60.6076L152.117 51.3168H153.178L156.978 60.6076H155.332L152.355 53.0824H152.913L149.909 60.6076H148.29ZM150.174 57.4897H155.103V58.8151H150.174V57.4897ZM166.259 60.7424C165.584 60.7424 164.964 60.6211 164.393 60.3785C163.821 60.1359 163.322 59.7945 162.9 59.3587C162.473 58.9184 162.149 58.4107 161.915 57.8312C161.686 57.2516 161.569 56.6316 161.569 55.9667C161.569 55.3018 161.686 54.6818 161.915 54.1023C162.144 53.5227 162.473 53.015 162.9 52.5837C163.327 52.1524 163.821 51.811 164.393 51.5639C164.964 51.3168 165.584 51.191 166.259 51.191C167.01 51.191 167.662 51.3168 168.21 51.5639C168.759 51.811 169.244 52.148 169.672 52.5748L168.637 53.6081C168.363 53.3071 168.03 53.0734 167.635 52.9027C167.239 52.7365 166.785 52.6511 166.259 52.6511C165.8 52.6511 165.377 52.732 164.995 52.8892C164.613 53.051 164.285 53.2756 164.006 53.5721C163.727 53.8686 163.511 54.2191 163.363 54.6279C163.21 55.0367 163.138 55.4815 163.138 55.9667C163.138 56.4519 163.214 56.9012 163.363 57.3055C163.516 57.7144 163.727 58.0648 164.006 58.3613C164.285 58.6578 164.613 58.8869 164.995 59.0442C165.377 59.2014 165.795 59.2823 166.259 59.2823C166.825 59.2823 167.306 59.1969 167.702 59.0217C168.098 58.851 168.43 58.6129 168.705 58.3119L169.739 59.3452C169.312 59.7765 168.813 60.1179 168.237 60.365C167.662 60.6121 167.001 60.7379 166.259 60.7379M174.15 51.3168H181.736V52.7095H174.15V51.3168ZM177.181 51.5819H178.71V60.6076H177.181V51.5819ZM186.799 51.3168H188.328V60.6076H186.799V51.3168ZM197.146 60.6076L193.387 51.3168H195.046L197.982 58.842H197.398L200.361 51.3168H201.993L198.207 60.6076H197.146ZM207.056 51.3168H208.585V60.6076H207.056V51.3168ZM208.104 51.3168H213.244V52.7095H208.104V51.3168ZM208.104 55.194H212.861V56.5328H208.104V55.194ZM208.104 59.2149H213.311V60.6076H208.104V59.2149ZM229.211 60.7424C228.572 60.7424 227.97 60.6166 227.403 60.3695C226.837 60.1224 226.342 59.7765 225.915 59.3407C225.488 58.9004 225.155 58.3927 224.912 57.8132C224.669 57.2336 224.548 56.6137 224.548 55.9487C224.548 55.2838 224.669 54.6683 224.912 54.0888C225.155 53.5137 225.492 53.006 225.924 52.5703C226.351 52.1345 226.859 51.793 227.439 51.5504C228.019 51.3078 228.644 51.1865 229.319 51.1865C230.052 51.1865 230.735 51.3303 231.365 51.6088C231.994 51.8919 232.52 52.2962 232.948 52.8174L231.909 53.8552C231.635 53.4643 231.266 53.1678 230.807 52.9611C230.349 52.7545 229.849 52.6511 229.319 52.6511C228.68 52.6511 228.123 52.7904 227.637 53.0689C227.152 53.3475 226.778 53.7339 226.513 54.2325C226.248 54.7267 226.113 55.3018 226.113 55.9577C226.113 56.6137 226.248 57.1887 226.517 57.6919C226.787 58.1906 227.152 58.5814 227.615 58.8645C228.073 59.1475 228.599 59.2913 229.184 59.2913C229.804 59.2913 230.34 59.179 230.785 58.9543C231.23 58.7297 231.576 58.3927 231.814 57.9435C232.053 57.4987 232.174 56.9461 232.174 56.2902L233.132 56.9821H229.161V55.5893H233.757V55.8005C233.757 56.9057 233.559 57.8267 233.168 58.559C232.772 59.2958 232.237 59.8439 231.554 60.2033C230.87 60.5672 230.092 60.7469 229.215 60.7469M238.317 60.6166L242.143 51.3258H243.204L247.004 60.6166H245.358L242.381 53.0914H242.939L239.935 60.6166H238.317ZM240.205 57.4987H245.133V58.824H240.205V57.4987ZM252.067 60.6166V51.3258H253.128L256.995 57.6829H256.303L260.17 51.3258H261.231V60.6166H259.702V54.0079L260.049 54.1023L257.18 58.8151H256.119L253.25 54.1023L253.596 54.0079V60.6166H252.067ZM266.982 51.3258H268.511V60.6166H266.982V51.3258ZM274.262 60.6166V51.3258H275.323L275.787 53.0779V60.6166H274.258H274.262ZM280.706 60.6166L275.139 53.3565L275.323 51.3258L280.89 58.5859L280.706 60.6166ZM280.706 60.6166L280.243 58.9858V51.3258H281.772V60.6166H280.71H280.706ZM291.718 60.7469C291.08 60.7469 290.477 60.6211 289.91 60.374C289.344 60.1269 288.849 59.781 288.422 59.3452C287.995 58.9049 287.662 58.3972 287.419 57.8177C287.177 57.2381 287.055 56.6181 287.055 55.9532C287.055 55.2883 287.177 54.6728 287.419 54.0933C287.662 53.5182 287.999 53.0105 288.431 52.5748C288.858 52.139 289.366 51.7975 289.946 51.5549C290.526 51.3123 291.151 51.191 291.826 51.191C292.559 51.191 293.242 51.3348 293.872 51.6133C294.501 51.8964 295.028 52.3007 295.455 52.8219L294.421 53.8597C294.146 53.4688 293.778 53.1723 293.319 52.9656C292.86 52.759 292.361 52.6556 291.83 52.6556C291.192 52.6556 290.634 52.7949 290.149 53.0734C289.663 53.352 289.29 53.7384 289.025 54.237C288.759 54.7312 288.624 55.3063 288.624 55.9622C288.624 56.6181 288.759 57.1932 289.029 57.6964C289.299 58.1951 289.663 58.5859 290.126 58.869C290.585 59.152 291.111 59.2958 291.696 59.2958C292.316 59.2958 292.851 59.1835 293.296 58.9588C293.742 58.7342 294.088 58.3972 294.326 57.948C294.564 57.5032 294.686 56.9506 294.686 56.2947L295.644 56.9865H291.673V55.5938H296.269V55.805C296.269 56.9102 296.071 57.8312 295.68 58.5635C295.284 59.3003 294.749 59.8484 294.065 60.2078C293.382 60.5717 292.604 60.7514 291.727 60.7514" fill="#CCCCCB"/>
<path d="M92.8428 7.58495H100.451V37.6993H92.8428V7.58495ZM97.1775 19.0951H114.008V25.5062H97.1775V19.0951ZM111.292 7.58495H118.901V37.6993H111.292V7.58495ZM124.256 7.58495H131.864V37.6993H124.256V7.58495ZM135.309 7.58495H161.366V14.1263H135.309V7.58495ZM144.491 7.79611H152.099V37.6948H144.491V7.8006V7.79611ZM174.204 38.2069C171.682 38.2069 169.501 37.8161 167.657 37.0388C165.813 36.2616 164.127 35.0486 162.598 33.4088L167.446 28.5657C168.466 29.6439 169.573 30.4751 170.76 31.0726C171.951 31.6656 173.296 31.9621 174.798 31.9621C176.075 31.9621 177.055 31.742 177.752 31.3017C178.444 30.8614 178.795 30.2594 178.795 29.4957C178.795 28.7319 178.534 28.1658 178.008 27.7121C177.482 27.2583 176.812 26.863 175.989 26.5215C175.166 26.1801 174.245 25.8431 173.228 25.5017C172.208 25.1602 171.2 24.7649 170.211 24.3111C169.217 23.8574 168.305 23.2868 167.468 22.5904C166.632 21.8986 165.957 21.0495 165.449 20.0431C164.941 19.0367 164.685 17.7698 164.685 16.2423C164.685 14.3464 165.143 12.7021 166.065 11.3139C166.987 9.92563 168.269 8.86985 169.91 8.15103C171.556 7.42771 173.467 7.0683 175.648 7.0683C177.828 7.0683 179.847 7.43669 181.704 8.17349C183.562 8.91029 185.068 9.93012 186.233 11.233L181.385 16.0761C180.477 15.1416 179.564 14.4497 178.642 13.996C177.72 13.5422 176.695 13.3176 175.562 13.3176C174.514 13.3176 173.691 13.5018 173.098 13.8702C172.5 14.2386 172.203 14.7642 172.203 15.4426C172.203 16.121 172.459 16.6691 172.968 17.0779C173.48 17.4868 174.15 17.8642 174.987 18.2011C175.823 18.5426 176.745 18.8795 177.747 19.2209C178.755 19.5624 179.753 19.9577 180.742 20.4115C181.736 20.8653 182.649 21.4448 183.485 22.1546C184.321 22.8645 184.996 23.754 185.504 24.8323C186.017 25.9105 186.268 27.2089 186.268 28.7409C186.268 31.715 185.207 34.0377 183.08 35.7045C180.954 37.3758 177.995 38.2114 174.195 38.2114M198.256 38.1261C196.327 38.1261 194.623 37.6588 193.135 36.7243C191.646 35.7899 190.473 34.5095 189.609 32.8786C188.746 31.2523 188.314 29.3878 188.314 27.2943C188.314 25.2007 188.746 23.3811 189.609 21.7503C190.473 20.124 191.651 18.8391 193.135 17.9091C194.623 16.9746 196.327 16.5074 198.256 16.5074C199.56 16.5074 200.748 16.741 201.827 17.2082C202.901 17.6755 203.796 18.3269 204.507 19.1625C205.213 19.9982 205.64 20.9686 205.784 22.0738V32.5237C205.64 33.6289 205.226 34.6038 204.529 35.4529C203.837 36.302 202.942 36.9625 201.849 37.4252C200.756 37.8924 199.56 38.1261 198.256 38.1261ZM199.871 31.5443C201.089 31.5443 202.065 31.149 202.802 30.3538C203.54 29.563 203.909 28.5432 203.909 27.2943C203.909 26.5035 203.747 25.7847 203.418 25.1513C203.095 24.5133 202.618 24.0101 201.993 23.6417C201.368 23.2733 200.662 23.0891 199.866 23.0891C199.07 23.0891 198.414 23.2733 197.807 23.6417C197.195 24.0101 196.71 24.5133 196.341 25.1513C195.972 25.7892 195.788 26.5035 195.788 27.2943C195.788 28.085 195.972 28.8442 196.341 29.4822C196.71 30.1201 197.2 30.6233 197.807 30.9917C198.414 31.3601 199.102 31.5443 199.866 31.5443M203.648 46.5363V32.2227L204.709 27.2134L203.648 22.1591V16.9342H210.919V46.5363H203.648ZM219.8 37.7037L213.212 16.9342H220.353L224.265 32.0115L222.138 32.0565L226.729 16.9387H233.361L237.993 32.0565L235.866 32.0115L239.818 16.9342H246.959L240.371 37.7037H233.699L229.278 23.3901H230.938L226.387 37.7037H219.8ZM257.931 38.1305C255.975 38.1305 254.252 37.6633 252.764 36.7288C251.276 35.7944 250.102 34.514 249.234 32.8831C248.371 31.2568 247.939 29.3923 247.939 27.2987C247.939 25.2052 248.371 23.3856 249.234 21.7548C250.098 20.1285 251.28 18.8436 252.782 17.9136C254.284 16.9791 255.984 16.5119 257.881 16.5119C259.212 16.5119 260.417 16.7455 261.496 17.2127C262.571 17.68 263.457 18.3314 264.154 19.167C264.846 20.0027 265.265 20.9731 265.409 22.0783V32.5282C265.238 33.6334 264.806 34.6083 264.113 35.4574C263.417 36.3065 262.535 36.9669 261.456 37.4297C260.377 37.8969 259.203 38.1305 257.926 38.1305M259.5 31.5488C260.719 31.5488 261.694 31.1534 262.432 30.3582C263.169 29.5675 263.538 28.5477 263.538 27.2987C263.538 26.508 263.367 25.7892 263.025 25.1557C262.684 24.5178 262.216 24.0146 261.622 23.6462C261.029 23.2778 260.332 23.0936 259.54 23.0936C258.749 23.0936 258.043 23.2778 257.436 23.6462C256.825 24.0146 256.343 24.5178 255.993 25.1557C255.637 25.7937 255.462 26.508 255.462 27.2987C255.462 28.0895 255.633 28.8487 255.975 29.4867C256.316 30.1246 256.798 30.6278 257.418 30.9962C258.043 31.3646 258.736 31.5488 259.5 31.5488ZM263.282 37.7082V32.1014L264.343 27.0876L263.282 22.0333V16.9342H270.593V37.7037H263.282V37.7082ZM283.773 38.135C281.79 38.135 280.022 37.6678 278.48 36.7333C276.933 35.7989 275.733 34.5184 274.865 32.8876C274.002 31.2613 273.57 29.3968 273.57 27.3032C273.57 25.2097 274.002 23.3811 274.865 21.7413C275.728 20.1015 276.929 18.8166 278.458 17.8956C279.986 16.9746 281.758 16.5164 283.773 16.5164C285.104 16.5164 286.336 16.75 287.469 17.2172C288.602 17.6845 289.551 18.3404 290.315 19.1895C291.08 20.0386 291.534 21.0045 291.673 22.0783V32.2272C291.529 33.3324 291.08 34.3298 290.315 35.2193C289.551 36.1133 288.602 36.8187 287.469 37.3443C286.336 37.87 285.104 38.1305 283.773 38.1305M285.135 31.5488C285.926 31.5488 286.628 31.3646 287.239 30.9962C287.846 30.6278 288.323 30.1336 288.665 29.5091C289.007 28.8891 289.177 28.1523 289.177 27.2987C289.177 26.4451 289.016 25.7578 288.687 25.1333C288.364 24.5088 287.891 24.0146 287.284 23.6462C286.677 23.2778 285.976 23.0936 285.18 23.0936C284.384 23.0936 283.687 23.2778 283.076 23.6462C282.464 24.0146 281.978 24.5178 281.61 25.1557C281.241 25.7937 281.057 26.508 281.057 27.2987C281.057 28.0895 281.232 28.8487 281.587 29.4867C281.942 30.1246 282.433 30.6278 283.053 30.9962C283.674 31.3646 284.371 31.5488 285.135 31.5488ZM296.228 37.7082H288.917V32.1014L289.978 27.0876L288.786 22.0333V6.73584H296.224V37.6993L296.228 37.7082Z" fill="white"/>
<path d="M296.534 41.2397H212.461V43.8949H296.534V41.2397Z" fill="#ED1C24"/>
<path d="M202.128 41.2397H92.8428V43.8949H202.128V41.2397Z" fill="#ED1C24"/>
</svg>
